<svg width="24" height="24" viewBox="0 0 24 24" fill="none" xmlns="http://www.w3.org/2000/svg">
<g clip-path="url(#clip0_824_5522)">
<path d="M19.139 4.61768L17.6089 22.054H6.39113L4.86132 4.61768L2.92285 4.7876L4.4806 22.5401C4.56259 23.3584 5.27255 23.9999 6.09732 23.9999H17.9027C18.7272 23.9999 19.4374 23.3587 19.5208 22.5285L21.0775 4.7876L19.139 4.61768Z" fill="#454545"/>
<path d="M15.5673 0H8.43219C7.538 0 6.81055 0.727453 6.81055 1.62164V4.70273H8.75647V1.94592H15.2429V4.70269H17.1889V1.62159C17.189 0.727453 16.4615 0 15.5673 0Z" fill="#454545"/>
<path d="M22.3781 3.72974H1.62142C1.084 3.72974 0.648438 4.1653 0.648438 4.70272C0.648438 5.24014 1.084 5.67571 1.62142 5.67571H22.3782C22.9156 5.67571 23.3512 5.24014 23.3512 4.70272C23.3512 4.1653 22.9156 3.72974 22.3781 3.72974Z" fill="#454545"/>
<path d="M14.7728 21.1412C14.7829 21.1417 14.7931 21.1419 14.8032 21.1419C15.1777 21.1419 15.4891 20.8464 15.5052 20.4686L15.974 9.45301C15.9905 9.06501 15.6893 8.73707 15.3013 8.72059C14.9138 8.70448 14.5855 9.00532 14.569 9.39332L14.1003 20.4089C14.0836 20.7969 14.3848 21.1247 14.7728 21.1412Z" fill="#454545"/>
<path d="M11.9951 21.1406C12.3835 21.1406 12.6982 20.8258 12.6982 20.4375V9.42187C12.6982 9.03351 12.3835 8.71875 11.9951 8.71875C11.6069 8.71875 11.292 9.03351 11.292 9.42187V20.4375C11.292 20.8258 11.6069 21.1406 11.9951 21.1406Z" fill="#454545"/>
<path d="M9.18198 21.1407C9.19205 21.1407 9.20231 21.1405 9.21256 21.14C9.60038 21.1235 9.90159 20.7957 9.88511 20.4077L9.41636 9.39211C9.39988 9.00411 9.07212 8.70309 8.68393 8.71938C8.29593 8.73586 7.99491 9.0638 8.01139 9.4518L8.48014 20.4674C8.49607 20.8453 8.80753 21.1407 9.18198 21.1407Z" fill="#454545"/>
</g>
<defs>
<clipPath id="clip0_824_5522">
<rect width="24" height="24" fill="white"/>
</clipPath>
</defs>
</svg>
