<svg width="24" height="24" viewBox="0 0 24 24" fill="none" xmlns="http://www.w3.org/2000/svg">
<g clip-path="url(#clip0_666_3005)">
<path d="M23.5361 3.465C22.4988 2.406 21.4398 1.356 20.5346 0.462C20.2256 0.153 19.8146 0 19.4021 0C18.9903 0 18.5778 0.15375 18.2696 0.46275C12.9528 5.7885 7.62784 11.109 2.30359 16.4318C2.21584 16.5195 2.14984 16.626 2.11009 16.7445C1.52734 18.4928 0.481091 21.3517 0.0318408 22.9867C-0.130159 23.571 0.391841 24.1155 0.983591 23.979C2.92909 23.5298 5.53159 22.4632 7.25509 21.8888C7.37134 21.8505 7.47934 21.7852 7.56784 21.6998C12.8883 16.3733 18.2156 11.0527 23.5361 5.7285C24.1526 5.1105 24.1526 4.08225 23.5361 3.465ZM2.06434 21.9345C2.20459 21.5033 2.35609 21.0667 2.50684 20.6122C2.70559 20.6955 2.89234 20.8147 3.05359 20.9775C3.20884 21.1327 3.32284 21.3075 3.40609 21.4935C2.95534 21.6435 2.50084 21.7973 2.06434 21.9345ZM6.57559 20.43C6.06184 20.604 5.48884 20.7997 4.92109 20.9925C4.75834 20.5755 4.51834 20.1795 4.18384 19.8442C3.84184 19.503 3.43984 19.2622 3.01159 19.1003C3.20209 18.5362 3.40084 17.9333 3.56884 17.43L16.4486 4.545C17.4506 5.54625 18.4518 6.5475 19.4538 7.5495C15.1668 11.8418 10.8678 16.1378 6.57559 20.43ZM20.5841 6.41625L17.5811 3.41475L19.4013 1.61475L22.3848 4.596L20.5841 6.41625Z" fill="#454545"/>
</g>
<defs>
<clipPath id="clip0_666_3005">
<rect width="24" height="24" fill="white"/>
</clipPath>
</defs>
</svg>
