<svg width="201" height="200" viewBox="0 0 201 200" fill="none" xmlns="http://www.w3.org/2000/svg">
<path d="M135.904 12H65.1704C55.7734 12 47.0905 17.0134 42.3921 25.1506L7.02524 86.4086C2.32492 94.5458 2.32492 104.574 7.02524 112.712L42.3902 173.97C47.0905 182.107 55.7734 187.12 65.1704 187.12H135.904C145.301 187.12 153.984 182.107 158.682 173.97L194.049 112.712C198.748 104.574 198.748 94.5458 194.049 86.4086L158.682 25.1506C153.984 17.0134 145.301 12 135.904 12Z" fill="#D1D1D1"/>
<path d="M115.411 47.4932H85.6635C76.2665 47.4932 67.5818 52.5066 62.8834 60.6456L48.0097 86.4086C43.3112 94.5458 43.3112 104.574 48.0097 112.712L62.8834 138.475C67.5818 146.614 76.2665 151.627 85.6635 151.627H115.411C124.808 151.627 133.493 146.614 138.191 138.475L153.065 112.712C157.763 104.574 157.763 94.5458 153.065 86.4086L138.191 60.6456C133.493 52.5066 124.808 47.4932 115.411 47.4932Z" fill="#D1D1D1"/>
<path d="M42.8359 126.437C40.5759 126.437 38.7373 124.598 38.7373 122.338V76.3339C38.7373 74.6439 40.1117 73.2695 41.8017 73.2695H64.5548C66.4976 73.2695 68.0788 74.8508 68.0788 76.7936V76.8702C68.0788 78.813 66.4976 80.3942 64.5548 80.3942H46.9345V96.0226H62.946C64.8888 96.0226 66.47 97.6039 66.47 99.5467C66.47 101.49 64.8888 103.071 62.946 103.071H46.9345V122.338C46.9345 124.598 45.0959 126.437 42.8359 126.437ZM41.8017 74.8017C40.9559 74.8017 40.2695 75.4881 40.2695 76.3339V122.271C40.2695 123.706 41.4447 124.929 42.8804 124.905C44.2762 124.882 45.4024 123.739 45.4024 122.338V102.305C45.4024 101.882 45.7456 101.539 46.1685 101.539H62.8878C63.9588 101.539 64.8827 100.717 64.9348 99.6463C64.9915 98.5033 64.0767 97.5548 62.946 97.5548H46.1685C45.7456 97.5548 45.4024 97.2116 45.4024 96.7887V79.6281C45.4024 79.2053 45.7456 78.862 46.1685 78.862H64.5548C65.6549 78.862 66.5466 77.9703 66.5466 76.8702V76.7936C66.5466 75.6935 65.6549 74.8017 64.5548 74.8017H41.8017Z" fill="#383838"/>
<path d="M41.8017 74.8017C40.9559 74.8017 40.2695 75.4881 40.2695 76.3339V122.271C40.2695 123.706 41.4447 124.929 42.8804 124.905C44.2762 124.882 45.4024 123.739 45.4024 122.338V102.305C45.4024 101.882 45.7456 101.539 46.1685 101.539H62.8878C63.9588 101.539 64.8827 100.717 64.9348 99.6463C64.9915 98.5033 64.0767 97.5548 62.946 97.5548H46.1685C45.7456 97.5548 45.4024 97.2116 45.4024 96.7887V79.6281C45.4024 79.2053 45.7456 78.862 46.1685 78.862H64.5548C65.6549 78.862 66.5466 77.9703 66.5466 76.8702V76.7936C66.5466 75.6935 65.6549 74.8017 64.5548 74.8017H41.8017Z" fill="#383838"/>
<path d="M108.201 126.069H108.049C106.339 126.069 104.818 124.981 104.269 123.361L99.8168 110.25C99.7544 110.065 99.5794 109.94 99.3846 109.94H82.9507C82.7544 109.94 82.5794 110.066 82.5171 110.253L78.2245 123.254C77.6888 124.878 76.2037 126.033 74.4949 126.069C73.1574 126.097 71.9385 125.485 71.1625 124.403C70.4032 123.344 70.2084 122.028 70.6284 120.794L85.3139 77.5697C86.1873 74.9966 88.6006 73.2695 91.3168 73.2695C94.0299 73.2695 96.4417 74.9951 97.3182 77.5621L112.069 120.789C112.486 122.01 112.3 123.311 111.564 124.365C110.803 125.452 109.529 126.069 108.201 126.069ZM81.8506 108.418H100.473C100.669 108.418 100.842 108.543 100.905 108.729L105.709 122.872C106.049 123.875 106.99 124.549 108.049 124.549H108.215C109.056 124.549 109.867 124.158 110.339 123.461C110.777 122.815 110.882 122.023 110.63 121.281L95.8787 78.0536C95.2122 76.1029 93.3802 74.7912 91.3183 74.7912C89.2534 74.7912 87.4198 76.1044 86.7564 78.0597L72.0709 121.284C71.8137 122.039 71.9294 122.844 72.3859 123.495C72.8211 124.116 73.5302 124.508 74.2864 124.546C75.4048 124.601 76.4091 123.907 76.7576 122.853L81.4199 108.733C81.4793 108.545 81.6543 108.418 81.8506 108.418ZM98.8855 104.766H83.4407C82.9203 104.766 82.5536 104.255 82.7194 103.762L87.7409 88.9258C88.59 86.2462 89.4086 83.3109 90.311 79.7031C90.3962 79.3638 90.7005 79.1264 91.049 79.1264H91.2012C91.5481 79.1264 91.8524 79.3622 91.9376 79.6985L92.0761 80.2387C92.7867 83.0142 93.5217 85.8841 94.5838 89.0004L99.6053 103.76C99.7742 104.253 99.4074 104.766 98.8855 104.766ZM84.5013 103.245H97.8234L93.1443 89.4904C92.3226 87.0786 91.6957 84.8235 91.1281 82.649C90.4677 85.1598 89.8393 87.3464 89.188 89.3991L84.5013 103.245Z" fill="#383838"/>
<path fill-rule="evenodd" clip-rule="evenodd" d="M81.8506 108.418H100.473C100.669 108.418 100.842 108.543 100.905 108.729L105.709 122.872C106.049 123.875 106.99 124.549 108.049 124.549H108.215C109.056 124.549 109.867 124.158 110.339 123.461C110.777 122.815 110.882 122.023 110.63 121.281L95.8787 78.0536C95.2122 76.1029 93.3802 74.7912 91.3183 74.7912C89.2534 74.7912 87.4198 76.1044 86.7564 78.0597L72.0709 121.284C71.8137 122.039 71.9294 122.844 72.3859 123.495C72.8211 124.116 73.5302 124.508 74.2864 124.546C75.4048 124.601 76.4091 123.907 76.7576 122.853L81.4199 108.733C81.4793 108.545 81.6543 108.418 81.8506 108.418ZM83.4407 104.766H98.8855C99.4074 104.766 99.7742 104.253 99.6053 103.76L94.5838 89.0004C93.5217 85.8841 92.7867 83.0142 92.0761 80.2387L91.9376 79.6985C91.8524 79.3622 91.5481 79.1264 91.2012 79.1264H91.049C90.7005 79.1264 90.3962 79.3638 90.311 79.7031C89.4086 83.3109 88.59 86.2462 87.7409 88.9258L82.7194 103.762C82.5536 104.255 82.9203 104.766 83.4407 104.766Z" fill="#383838"/>
<path d="M125.39 126.072C127.635 126.072 129.461 124.246 129.461 122.001V77.34C129.461 75.0955 127.635 73.2695 125.39 73.2695C123.146 73.2695 121.32 75.0955 121.32 77.34V122.001C121.32 124.246 123.146 126.072 125.39 126.072ZM125.39 74.7912C126.796 74.7912 127.939 75.934 127.939 77.34V122.001C127.939 123.407 126.796 124.55 125.39 124.55C123.984 124.55 122.842 123.407 122.842 122.001V77.34C122.842 75.934 123.984 74.7912 125.39 74.7912Z" fill="#383838"/>
<path d="M125.39 74.7912C126.796 74.7912 127.939 75.934 127.939 77.34V122.001C127.939 123.407 126.796 124.55 125.39 124.55C123.984 124.55 122.842 123.407 122.842 122.001V77.34C122.842 75.934 123.984 74.7912 125.39 74.7912Z" fill="#383838"/>
<path d="M164.799 126.072H140.566C139.308 126.072 138.284 125.048 138.284 123.789V76.8074C138.284 74.8566 139.871 73.2695 141.822 73.2695H142.887C144.838 73.2695 146.425 74.8566 146.425 76.8074V118.996H164.799C166.75 118.996 168.337 120.583 168.337 122.534C168.337 124.485 166.75 126.072 164.799 126.072ZM141.822 74.7912C140.708 74.7912 139.805 75.6936 139.805 76.8074V123.789C139.805 124.209 140.146 124.55 140.566 124.55H164.741C165.826 124.55 166.76 123.718 166.814 122.636C166.871 121.478 165.945 120.518 164.8 120.518H145.664C145.244 120.518 144.903 120.177 144.903 119.757V76.8074C144.903 75.6936 144.001 74.7912 142.887 74.7912H141.822Z" fill="#383838"/>
<path d="M141.822 74.7912C140.708 74.7912 139.805 75.6936 139.805 76.8074V123.789C139.805 124.209 140.146 124.55 140.566 124.55H164.741C165.826 124.55 166.76 123.718 166.814 122.636C166.871 121.478 165.945 120.518 164.8 120.518H145.664C145.244 120.518 144.903 120.177 144.903 119.757V76.8074C144.903 75.6936 144.001 74.7912 142.887 74.7912H141.822Z" fill="#383838"/>
</svg>
