<svg width="25" height="24" viewBox="0 0 25 24" fill="none" xmlns="http://www.w3.org/2000/svg">
<g clip-path="url(#clip0_1844_5758)">
<path d="M22 16H19.5V13.5C19.5 13.224 19.276 13 19 13C18.724 13 18.5 13.224 18.5 13.5V16H16C15.724 16 15.5 16.224 15.5 16.5C15.5 16.776 15.724 17 16 17H18.5V19.5C18.5 19.776 18.724 20 19 20C19.276 20 19.5 19.776 19.5 19.5V17H22C22.276 17 22.5 16.776 22.5 16.5C22.5 16.224 22.276 16 22 16Z" fill="#00B021"/>
<path d="M8.99998 8.99997C10.378 8.99997 11.5 7.87895 11.5 6.49998C11.5 5.12097 10.378 4 8.99998 4C7.622 4 6.5 5.12097 6.5 6.49998C6.5 7.87895 7.622 8.99997 8.99998 8.99997ZM8.99998 4.99998C9.827 4.99998 10.5 5.67297 10.5 6.49998C10.5 7.327 9.827 7.99998 8.99998 7.99998C8.17297 7.99998 7.49998 7.327 7.49998 6.49998C7.49998 5.67297 8.17302 4.99998 8.99998 4.99998Z" fill="#00B021"/>
<path d="M22.5 12.261V2.50002C22.5 2.22402 22.276 2 22 2H0.999969C0.724016 2.00005 0.5 2.22402 0.5 2.50002V18.5C0.5 18.776 0.724016 19 1.00002 19H14.107C15.019 20.778 16.868 22 19 22C22.033 22 24.5 19.532 24.5 16.5C24.5 14.796 23.721 13.271 22.5 12.261ZM1.49998 3.00003H21.5V11.607C20.749 11.222 19.901 11 19 11C18.936 11 18.874 11.007 18.811 11.01L16.38 8.17503C16.287 8.06605 16.151 8.00305 16.008 8.00005C15.89 8.01106 15.729 8.05705 15.632 8.16205L10.3991 13.862L6.68408 10.146C6.49606 9.95802 6.16409 9.95802 5.97706 10.146L1.50008 14.623V3.00003H1.49998ZM1.49998 18V16.037L6.32998 11.207L9.722 14.6L6.59998 18H1.49998ZM13.713 18H7.95702L15.987 9.25302L17.638 11.178C15.263 11.786 13.5 13.938 13.5 16.5C13.5 17.021 13.577 17.522 13.713 18ZM19 21C16.519 21 14.5 18.981 14.5 16.5C14.5 14.019 16.519 12 19 12C21.481 12 23.5 14.019 23.5 16.5C23.5 18.981 21.481 21 19 21Z" fill="#00B021"/>
</g>
<defs>
<clipPath id="clip0_1844_5758">
<rect width="24" height="24" fill="white" transform="translate(0.5)"/>
</clipPath>
</defs>
</svg>
