<svg width="24" height="24" viewBox="0 0 24 24" fill="none" xmlns="http://www.w3.org/2000/svg">
<g clip-path="url(#clip0_268_1464)">
<path d="M22.8571 10.8571H13.1429V1.14286C13.1429 0.512016 12.632 0 12 0C11.368 0 10.8571 0.512016 10.8571 1.14286V10.8571H1.14286C0.510844 10.8571 0 11.3692 0 12C0 12.6308 0.510844 13.1429 1.14286 13.1429H10.8571V22.8571C10.8571 23.488 11.368 24 12 24C12.632 24 13.1429 23.488 13.1429 22.8571V13.1429H22.8571C23.4892 13.1429 24 12.6308 24 12C24 11.3692 23.4892 10.8571 22.8571 10.8571Z" fill="#454545"/>
</g>
<defs>
<clipPath id="clip0_268_1464">
<rect width="24" height="24" fill="white"/>
</clipPath>
</defs>
</svg>
