<svg width="241" height="240" viewBox="0 0 241 240" fill="none" xmlns="http://www.w3.org/2000/svg">
<path d="M155.867 32.3311H85.1333C75.7363 32.3311 67.0534 37.3445 62.3549 45.4817L26.9881 106.74C22.2878 114.877 22.2878 124.906 26.9881 133.043L62.3531 194.301C67.0534 202.438 75.7363 207.451 85.1333 207.451H155.867C165.264 207.451 173.947 202.438 178.645 194.301L214.012 133.043C218.711 124.906 218.711 114.877 214.012 106.74L178.645 45.4817C173.947 37.3445 165.264 32.3311 155.867 32.3311Z" fill="#BFECB8"/>
<path d="M135.374 67.8242H105.626C96.2294 67.8242 87.5447 72.8376 82.8463 80.9767L67.9726 106.74C63.2741 114.877 63.2741 124.906 67.9726 133.043L82.8463 158.806C87.5447 166.945 96.2294 171.958 105.626 171.958H135.374C144.771 171.958 153.455 166.945 158.154 158.806L173.028 133.043C177.726 124.906 177.726 114.877 173.028 106.74L158.154 80.9767C153.455 72.8376 144.771 67.8242 135.374 67.8242Z" fill="#98DF90"/>
<path d="M128.015 33.4677C128.015 37.6168 124.651 40.9823 120.5 40.9823C116.349 40.9823 112.985 37.6168 112.985 33.4677C112.985 29.3167 116.349 25.9512 120.5 25.9512C124.651 25.9512 128.015 29.3167 128.015 33.4677Z" fill="#E8F8E4"/>
<path d="M128.015 206.316C128.015 210.465 124.651 213.831 120.5 213.831C116.349 213.831 112.985 210.465 112.985 206.316C112.985 202.165 116.349 198.8 120.5 198.8C124.651 198.8 128.015 202.165 128.015 206.316Z" fill="#E8F8E4"/>
<path d="M47.8201 106.793C49.2922 106.793 50.5355 108.514 50.5355 110.55C50.5355 112.493 52.1084 114.066 54.0511 114.066C55.9921 114.066 57.5668 112.493 57.5668 110.55C57.5668 104.601 53.1942 99.7617 47.8201 99.7617C42.4478 99.7617 38.0752 104.601 38.0752 110.55C38.0752 117.893 42.2244 120.813 46.1135 122.974C49.4314 124.82 50.5355 125.986 50.5355 129.253C50.5355 131.291 49.2922 133.012 47.8219 133.012C46.3497 133.012 45.1064 131.291 45.1064 129.253C45.1064 127.312 43.5336 125.737 41.5908 125.737C39.6499 125.737 38.0752 127.312 38.0752 129.253C38.0752 135.202 42.4478 140.043 47.8219 140.043C53.1942 140.043 57.5668 135.202 57.5668 129.253C57.5668 121.912 53.4176 118.991 49.5303 116.829C46.2106 114.985 45.1064 113.819 45.1064 110.55C45.1064 108.514 46.3497 106.793 47.8201 106.793Z" fill="#006800"/>
<path d="M66.5098 99.7871C64.5688 99.7871 62.9941 101.36 62.9941 103.303V130.298C62.9941 135.67 67.3667 140.043 72.739 140.043C78.1132 140.043 82.4857 135.67 82.4857 130.298V103.303C82.4857 101.36 80.911 99.7871 78.9701 99.7871C77.0273 99.7871 75.4545 101.36 75.4545 103.303V130.298C75.4545 131.794 74.2368 133.012 72.739 133.012C71.243 133.012 70.0254 131.794 70.0254 130.298V103.303C70.0254 101.36 68.4525 99.7871 66.5098 99.7871Z" fill="#006800"/>
<path d="M97.6575 106.818C99.1553 106.818 100.373 108.036 100.373 109.532C100.373 111.473 101.946 113.048 103.889 113.048C105.829 113.048 107.404 111.473 107.404 109.532C107.404 104.158 103.032 99.7871 97.6575 99.7871C92.2852 99.7871 87.9126 104.158 87.9126 109.532V130.298C87.9126 135.67 92.2852 140.043 97.6575 140.043C103.032 140.043 107.404 135.67 107.404 130.298C107.404 128.355 105.829 126.782 103.889 126.782C101.946 126.782 100.373 128.355 100.373 130.298C100.373 131.794 99.1553 133.012 97.6575 133.012C96.1615 133.012 94.9438 131.794 94.9438 130.298V109.532C94.9438 108.034 96.1615 106.818 97.6575 106.818Z" fill="#006800"/>
<path d="M121.95 106.818C123.446 106.818 124.664 108.036 124.664 109.532C124.664 111.473 126.238 113.048 128.179 113.048C130.122 113.048 131.695 111.473 131.695 109.532C131.695 104.158 127.324 99.7871 121.95 99.7871C116.578 99.7871 112.205 104.158 112.205 109.532V130.298C112.205 135.67 116.576 140.043 121.95 140.043C127.324 140.043 131.695 135.67 131.695 130.298C131.695 128.355 130.122 126.782 128.179 126.782C126.238 126.782 124.664 128.355 124.664 130.298C124.664 131.794 123.446 133.012 121.95 133.012C120.454 133.012 119.236 131.794 119.236 130.298V109.532C119.236 108.034 120.454 106.818 121.95 106.818Z" fill="#006800"/>
<path d="M155.766 136.527C155.766 134.584 154.191 133.012 152.25 133.012H143.306V123.43H148.096C150.038 123.43 151.611 121.857 151.611 119.914C151.611 117.973 150.038 116.398 148.096 116.398H143.306V106.818H152.25C154.191 106.818 155.766 105.244 155.766 103.303C155.766 101.36 154.191 99.7871 152.25 99.7871H139.79C137.849 99.7871 136.274 101.36 136.274 103.303V136.527C136.274 138.468 137.849 140.043 139.79 140.043H152.25C154.191 140.043 155.766 138.468 155.766 136.527Z" fill="#006800"/>
<path d="M169.356 106.793C170.828 106.793 172.07 108.514 172.07 110.55C172.07 112.493 173.645 114.066 175.585 114.066C177.528 114.066 179.101 112.493 179.101 110.55C179.101 104.601 174.73 99.7617 169.356 99.7617C163.984 99.7617 159.611 104.601 159.611 110.55C159.611 117.893 163.759 120.813 167.648 122.974C170.966 124.82 172.07 125.986 172.07 129.253C172.07 131.291 170.828 133.012 169.356 133.012C167.886 133.012 166.643 131.291 166.643 129.253C166.643 127.312 165.068 125.737 163.127 125.737C161.186 125.737 159.611 127.312 159.611 129.253C159.611 135.202 163.982 140.043 169.356 140.043C174.73 140.043 179.101 135.202 179.101 129.253C179.101 121.912 174.954 118.991 171.065 116.829C167.747 114.985 166.643 113.819 166.643 110.55C166.643 108.514 167.886 106.793 169.356 106.793Z" fill="#006800"/>
<path d="M193.18 106.793C194.651 106.793 195.894 108.514 195.894 110.55C195.894 112.493 197.467 114.066 199.41 114.066C201.35 114.066 202.925 112.493 202.925 110.55C202.925 104.601 198.553 99.7617 193.18 99.7617C187.806 99.7617 183.434 104.601 183.434 110.55C183.434 117.893 187.583 120.813 191.472 122.974C194.79 124.82 195.894 125.986 195.894 129.253C195.894 131.291 194.651 133.012 193.18 133.012C191.708 133.012 190.467 131.291 190.467 129.253C190.467 127.312 188.892 125.737 186.951 125.737C185.008 125.737 183.435 127.312 183.435 129.253C183.435 135.202 187.806 140.043 193.18 140.043C198.554 140.043 202.925 135.202 202.925 129.253C202.925 121.912 198.776 118.991 194.889 116.829C191.569 114.985 190.467 113.819 190.467 110.55C190.465 108.514 191.708 106.793 193.18 106.793Z" fill="#006800"/>
<path d="M48.4992 52.8626L84.1956 88.559C84.8823 89.2457 85.7813 89.5881 86.6822 89.5881C87.5812 89.5881 88.4803 89.2457 89.1669 88.559C90.5402 87.1857 90.5402 84.9592 89.1669 83.5877L53.4705 47.8913C52.0972 46.518 49.8707 46.518 48.4992 47.8913C47.1259 49.2628 47.1259 51.4893 48.4992 52.8626Z" fill="#006800"/>
<path d="M47.1169 39.408C47.4374 38.855 47.5875 38.2507 47.5875 37.6538C47.5875 36.438 46.9576 35.257 45.8297 34.6051L37.3501 29.7107L45.8297 24.8145C46.9576 24.1626 47.5894 22.9797 47.5875 21.7657C47.5875 21.1688 47.4355 20.5646 47.1169 20.0116C46.1465 18.3289 43.995 17.7539 42.3141 18.7244L33.8345 23.6206V13.8281C33.8345 11.8872 32.2598 10.3125 30.3188 10.3125C28.3779 10.3125 26.8032 11.8872 26.8032 13.8281V23.6206L18.3236 18.7244C16.6409 17.7521 14.4912 18.3289 13.5208 20.0116C13.2003 20.5646 13.0483 21.1688 13.0483 21.7639C13.0483 22.9797 13.6801 24.1626 14.808 24.8126L23.2876 29.7089L14.808 34.6051C13.6782 35.257 13.0483 36.438 13.0483 37.6538C13.0483 38.2507 13.2021 38.855 13.5208 39.408C14.4912 41.0889 16.6409 41.6656 18.3236 40.6952L26.8032 35.799V45.5914C26.8032 47.5323 28.3779 49.1071 30.3188 49.1071C32.2598 49.1071 33.8345 47.5323 33.8345 45.5914V35.799L42.3141 40.6952C43.995 41.6656 46.1465 41.0889 47.1169 39.408Z" fill="#006800"/>
<path d="M192.501 186.92L156.805 151.223C155.431 149.85 153.205 149.85 151.833 151.223C150.46 152.597 150.46 154.823 151.833 156.195L187.53 191.891C188.216 192.578 189.115 192.922 190.016 192.922C190.915 192.922 191.814 192.58 192.501 191.891C193.874 190.52 193.874 188.293 192.501 186.92Z" fill="#006800"/>
<path d="M227.952 202.128C227.952 201.531 227.798 200.927 227.479 200.374C226.509 198.693 224.359 198.116 222.677 199.087L214.197 203.983V194.19C214.197 192.25 212.622 190.675 210.681 190.675C208.74 190.675 207.166 192.25 207.166 194.19V203.983L198.686 199.087C197.005 198.116 194.854 198.693 193.883 200.374C193.563 200.927 193.413 201.531 193.413 202.128C193.413 203.344 194.042 204.525 195.17 205.177L203.65 210.073L195.17 214.969C194.042 215.619 193.411 216.802 193.413 218.018C193.413 218.613 193.565 219.217 193.883 219.77C194.854 221.453 197.005 222.028 198.686 221.057L207.166 216.161V225.954C207.166 227.896 208.74 229.469 210.681 229.469C212.622 229.469 214.197 227.896 214.197 225.954V216.161L222.677 221.057C224.357 222.028 226.509 221.451 227.479 219.77C227.8 219.217 227.952 218.613 227.952 218.018C227.952 216.802 227.32 215.619 226.192 214.969L217.713 210.073L226.192 205.177C227.322 204.525 227.952 203.344 227.952 202.128Z" fill="#006800"/>
<path d="M84.1955 151.223L65.4089 170.012C64.0356 171.385 64.0356 173.61 65.4089 174.983C66.0937 175.67 66.9946 176.012 67.8936 176.012C68.7927 176.012 69.6935 175.67 70.3802 174.983L89.1668 156.195C90.5401 154.821 90.5401 152.597 89.1668 151.223C87.7953 149.85 85.5688 149.85 84.1955 151.223Z" fill="#006800"/>
<path d="M64.1366 184.012H56.3802V176.254C56.3802 174.313 54.8055 172.738 52.8646 172.738C50.9219 172.738 49.349 174.313 49.349 176.254V184.012H41.5908C39.6499 184.012 38.0752 185.585 38.0752 187.528C38.0752 189.469 39.6499 191.043 41.5908 191.043H49.349V198.8C49.349 200.741 50.9219 202.315 52.8646 202.315C54.8055 202.315 56.3802 200.741 56.3802 198.8V191.043H64.1366C66.0775 191.043 67.6522 189.469 67.6522 187.528C67.6522 185.585 66.0775 184.012 64.1366 184.012Z" fill="#006800"/>
<path d="M154.318 89.5883C155.217 89.5883 156.118 89.2459 156.805 88.5593L175.591 69.7708C176.964 68.3975 176.964 66.1728 175.591 64.7995C174.22 63.4262 171.993 63.4262 170.62 64.7995L151.833 83.588C150.46 84.9612 150.46 87.186 151.833 88.5593C152.518 89.2459 153.419 89.5883 154.318 89.5883Z" fill="#006800"/>
<path d="M176.863 55.77H184.62V63.5282C184.62 65.4691 186.194 67.0438 188.135 67.0438C190.078 67.0438 191.651 65.4691 191.651 63.5282V55.77H199.409C201.35 55.77 202.925 54.1953 202.925 52.2544C202.925 50.3135 201.35 48.7388 199.409 48.7388H191.651V40.9824C191.651 39.0397 190.078 37.4668 188.135 37.4668C186.194 37.4668 184.62 39.0397 184.62 40.9824V48.7388H176.863C174.922 48.7388 173.348 50.3135 173.348 52.2544C173.348 54.1953 174.922 55.77 176.863 55.77Z" fill="#006800"/>
<path d="M116.984 56.0117V82.3148C116.984 84.2557 118.559 85.8304 120.5 85.8304C122.441 85.8304 124.016 84.2557 124.016 82.3148V56.0117C124.016 54.0708 122.441 52.4961 120.5 52.4961C118.559 52.4961 116.984 54.0708 116.984 56.0117Z" fill="#006800"/>
<path d="M120.5 44.4979C126.583 44.4979 131.53 39.5486 131.53 33.4677C131.53 27.3849 126.583 22.4355 120.5 22.4355C114.417 22.4355 109.47 27.3849 109.47 33.4658C109.47 39.5486 114.417 44.4979 120.5 44.4979ZM120.5 29.4668C122.705 29.4668 124.499 31.2612 124.499 33.4658C124.499 35.6722 122.705 37.4667 120.5 37.4667C118.295 37.4667 116.501 35.6722 116.501 33.4658C116.501 31.2612 118.295 29.4668 120.5 29.4668Z" fill="#006800"/>
<path d="M124.016 183.77V157.467C124.016 155.524 122.441 153.951 120.5 153.951C118.559 153.951 116.984 155.524 116.984 157.467V183.77C116.984 185.711 118.559 187.286 120.5 187.286C122.441 187.286 124.016 185.711 124.016 183.77Z" fill="#006800"/>
<path d="M120.5 195.284C114.417 195.284 109.47 200.234 109.47 206.316C109.47 212.397 114.417 217.347 120.5 217.347C126.583 217.347 131.53 212.397 131.53 206.316C131.53 200.234 126.583 195.284 120.5 195.284ZM120.5 210.315C118.295 210.315 116.501 208.521 116.501 206.316C116.501 204.11 118.295 202.315 120.5 202.315C122.705 202.315 124.499 204.11 124.499 206.316C124.499 208.521 122.705 210.315 120.5 210.315Z" fill="#006800"/>
</svg>
