<svg width="181" height="110" viewBox="0 0 181 110" fill="none" xmlns="http://www.w3.org/2000/svg">
<g clip-path="url(#clip0_857_4694)">
<path d="M119.876 49.8206C117.699 49.5151 115.577 48.8993 113.577 47.9923C113.364 47.8943 113.134 47.8391 112.9 47.8298C112.666 47.8205 112.433 47.8573 112.213 47.9381C111.994 48.0189 111.793 48.1421 111.621 48.3006C111.449 48.4591 111.311 48.6497 111.214 48.8616C111.117 49.0735 111.063 49.3023 111.055 49.5351C111.047 49.7678 111.085 49.9998 111.168 50.2176C111.251 50.4357 111.376 50.635 111.536 50.8046C111.697 50.9742 111.889 51.1107 112.103 51.2061C114.414 52.2535 116.865 52.9651 119.379 53.3181C119.61 53.3508 119.845 53.3379 120.071 53.2796C120.297 53.2217 120.509 53.1203 120.696 52.9809C120.882 52.8414 121.039 52.6669 121.157 52.4671C121.276 52.2673 121.353 52.0463 121.386 51.8168C121.419 51.5869 121.406 51.3535 121.347 51.1285C121.289 50.904 121.187 50.6928 121.047 50.5079C120.907 50.3224 120.731 50.1662 120.53 50.0484C120.33 49.9305 120.107 49.8531 119.876 49.8206Z" fill="#00B021"/>
<path d="M106.813 10.2155C107.242 10.2158 107.657 10.0611 107.98 9.78027C109.637 8.34229 111.493 7.14712 113.49 6.231C113.705 6.13556 113.898 5.99878 114.059 5.82862C114.219 5.65847 114.344 5.45828 114.427 5.23964C114.51 5.02101 114.548 4.78827 114.539 4.55491C114.53 4.32153 114.475 4.09216 114.378 3.88007C114.279 3.66797 114.14 3.47735 113.967 3.31925C113.794 3.16115 113.591 3.0387 113.371 2.95898C113.15 2.87928 112.916 2.84388 112.681 2.85486C112.447 2.86583 112.217 2.92296 112.004 3.02294C109.699 4.08 107.558 5.45983 105.646 7.12042C105.373 7.35684 105.18 7.67031 105.091 8.01894C105.003 8.36761 105.023 8.73483 105.15 9.07154C105.277 9.40825 105.504 9.69843 105.801 9.9032C106.099 10.108 106.452 10.2177 106.813 10.2176V10.2155Z" fill="#00B021"/>
<path d="M119.525 4.39486C119.611 4.39476 119.697 4.38839 119.783 4.37579C121.96 4.06297 124.172 4.05631 126.352 4.35601C126.584 4.39002 126.82 4.37804 127.047 4.32076C127.274 4.26348 127.488 4.16203 127.675 4.02225C127.863 3.88248 128.021 3.70715 128.14 3.50639C128.259 3.30562 128.337 3.08338 128.37 2.85248C128.402 2.62159 128.388 2.38661 128.329 2.1611C128.269 1.93559 128.165 1.724 128.024 1.53856C127.882 1.3531 127.704 1.19745 127.501 1.08058C127.298 0.9637 127.074 0.887914 126.842 0.857588C124.33 0.512553 121.781 0.520163 119.27 0.880195C118.826 0.943263 118.421 1.17187 118.139 1.51991C117.856 1.86795 117.718 2.30949 117.75 2.75547C117.782 3.20144 117.983 3.61864 118.313 3.9229C118.642 4.22716 119.075 4.39582 119.525 4.39486Z" fill="#00B021"/>
<path d="M98.7755 21.8736C98.999 21.9392 99.2339 21.9602 99.4658 21.9353C99.6977 21.9103 99.9227 21.8401 100.127 21.7285C100.332 21.6168 100.512 21.4661 100.658 21.2849C100.804 21.1037 100.912 20.8956 100.977 20.6726C101.592 18.5724 102.506 16.5709 103.692 14.7291C103.947 14.3346 104.033 13.8558 103.932 13.398C103.832 12.9402 103.552 12.5408 103.156 12.2879C102.759 12.035 102.278 11.9491 101.818 12.0492C101.357 12.1493 100.956 12.4272 100.702 12.8216C99.3318 14.9479 98.2765 17.2588 97.5669 19.6835C97.5016 19.9063 97.4814 20.1396 97.5066 20.3702C97.5323 20.6007 97.603 20.8241 97.7153 21.0275C97.8275 21.2309 97.9788 21.4102 98.1608 21.5554C98.3423 21.7006 98.5515 21.8087 98.7755 21.8736Z" fill="#00B021"/>
<path d="M103.74 39.5331C103.613 39.3382 103.45 39.1701 103.258 39.0383C103.066 38.9065 102.85 38.8135 102.622 38.7648C102.393 38.716 102.158 38.7124 101.929 38.7542C101.7 38.7959 101.48 38.8822 101.285 39.0081C101.089 39.134 100.92 39.2971 100.787 39.4879C100.655 39.6788 100.561 39.8938 100.512 40.1205C100.463 40.3473 100.46 40.5815 100.501 40.8097C100.543 41.0378 100.63 41.2556 100.757 41.4504C102.135 43.5697 103.809 45.4833 105.729 47.1339C105.905 47.2856 106.11 47.4013 106.331 47.4744C106.553 47.5474 106.786 47.5764 107.018 47.5596C107.251 47.5429 107.478 47.4807 107.687 47.3767C107.895 47.2727 108.081 47.1288 108.233 46.9534C108.386 46.778 108.502 46.5744 108.576 46.3542C108.649 46.1341 108.679 45.9017 108.661 45.6703C108.644 45.439 108.582 45.2132 108.478 45.0059C108.373 44.7986 108.229 44.6138 108.052 44.462C106.387 43.0306 104.935 41.371 103.74 39.5331Z" fill="#00B021"/>
<path d="M126.696 53.3266C126.781 53.3266 126.866 53.3206 126.95 53.3083C129.464 52.9503 131.912 52.2342 134.22 51.1819C134.648 50.9866 134.981 50.6305 135.145 50.1914C135.309 49.7522 135.291 49.2663 135.095 48.8404C134.899 48.4145 134.541 48.0836 134.099 47.9204C133.657 47.7573 133.169 47.7752 132.741 47.9704C130.742 48.8811 128.621 49.5013 126.445 49.8121C126.001 49.8752 125.596 50.1034 125.314 50.451C125.032 50.7987 124.892 51.2398 124.924 51.6858C124.956 52.1314 125.156 52.5482 125.485 52.8528C125.814 53.1575 126.247 53.3271 126.696 53.3266Z" fill="#00B021"/>
<path d="M145.262 20.5362C145.396 20.9852 145.704 21.3628 146.118 21.5861C146.532 21.8092 147.018 21.8596 147.47 21.7263C147.921 21.5928 148.3 21.2865 148.525 20.8747C148.749 20.4628 148.8 19.9792 148.666 19.5302C147.942 17.1093 146.872 14.8045 145.489 12.6867C145.232 12.2938 144.829 12.0183 144.369 11.9209C143.908 11.8234 143.428 11.912 143.032 12.1671C142.637 12.4221 142.36 12.8229 142.262 13.2811C142.165 13.7393 142.254 14.2175 142.51 14.6104C143.708 16.4442 144.635 18.4399 145.262 20.5362Z" fill="#00B021"/>
<path d="M146.216 26.9904V27.0908C146.218 29.2786 145.906 31.4556 145.289 33.5556C145.223 33.7783 145.202 34.0116 145.227 34.2422C145.252 34.4729 145.323 34.6964 145.434 34.9C145.547 35.1035 145.697 35.2832 145.879 35.4287C146.061 35.5741 146.27 35.6825 146.494 35.7478C146.718 35.813 146.952 35.8337 147.184 35.8088C147.416 35.7838 147.641 35.7137 147.845 35.6023C148.05 35.491 148.23 35.3407 148.377 35.1599C148.523 34.9792 148.632 34.7716 148.698 34.5489C149.41 32.1262 149.77 29.6148 149.769 27.0908V26.9904C149.769 26.522 149.582 26.0728 149.249 25.7415C148.916 25.4103 148.464 25.2242 147.993 25.2242C147.522 25.2242 147.071 25.4103 146.737 25.7415C146.405 26.0728 146.217 26.522 146.217 26.9904H146.216Z" fill="#00B021"/>
<path d="M132.655 6.17234C134.659 7.0763 136.522 8.26054 138.189 9.68912C138.365 9.84335 138.571 9.96129 138.793 10.0361C139.015 10.1109 139.25 10.1411 139.484 10.1249C139.719 10.1088 139.947 10.0465 140.157 9.94191C140.367 9.83727 140.554 9.69228 140.707 9.5153C140.86 9.33831 140.977 9.1329 141.05 8.91091C141.122 8.68888 141.15 8.45473 141.132 8.22197C141.113 7.9892 141.048 7.76242 140.94 7.55478C140.833 7.34714 140.685 7.16279 140.506 7.01231C138.583 5.36435 136.433 3.99835 134.122 2.95578C133.909 2.85575 133.678 2.79885 133.443 2.78838C133.208 2.77792 132.973 2.81411 132.752 2.89484C132.531 2.97556 132.328 3.09923 132.155 3.25862C131.983 3.41801 131.844 3.60996 131.746 3.82327C131.649 4.03659 131.596 4.26702 131.589 4.50115C131.582 4.73528 131.622 4.96844 131.706 5.18705C131.791 5.40565 131.918 5.60534 132.081 5.77451C132.244 5.94363 132.439 6.07888 132.655 6.17234Z" fill="#00B021"/>
<path d="M99.2954 35.8672C99.5718 35.8674 99.8443 35.8035 100.092 35.6806C100.339 35.5577 100.553 35.379 100.719 35.159C100.885 34.9389 100.996 34.6835 101.045 34.413C101.094 34.1425 101.079 33.8644 101 33.6008C100.379 31.5021 100.062 29.3258 100.059 27.1381C100.061 26.9052 100.017 26.6742 99.9283 26.4587C99.8398 26.2431 99.7083 26.0476 99.5421 25.8833C99.376 25.7192 99.1787 25.5898 98.9616 25.5028C98.7445 25.4158 98.5121 25.373 98.2777 25.3768C97.8079 25.3782 97.3574 25.5648 97.0256 25.8959C96.6933 26.227 96.5068 26.6754 96.5068 27.143C96.5108 29.6671 96.8762 32.1777 97.5933 34.5991C97.7011 34.9649 97.9256 35.2861 98.2322 35.5147C98.5393 35.7432 98.9121 35.8669 99.2954 35.8672Z" fill="#00B021"/>
<path d="M145.548 41.4045C145.773 41.0116 145.839 40.5478 145.73 40.1086C145.622 39.6694 145.349 39.2882 144.966 39.0437C144.584 38.7992 144.121 38.7098 143.675 38.7942C143.228 38.8785 142.831 39.1301 142.565 39.497C141.374 41.3378 139.926 43.0008 138.264 44.4359C138.083 44.5863 137.934 44.7711 137.824 44.9797C137.715 45.1883 137.65 45.4164 137.631 45.6507C137.612 45.8849 137.64 46.1206 137.713 46.3439C137.787 46.5671 137.905 46.7736 138.06 46.951C138.214 47.1285 138.403 47.2734 138.615 47.3773C138.827 47.4813 139.058 47.5421 139.294 47.5562C139.53 47.5703 139.766 47.5375 139.989 47.4597C140.212 47.3818 140.417 47.2605 140.592 47.1028C142.508 45.4472 144.177 43.5285 145.548 41.4045Z" fill="#00B021"/>
<path d="M119.968 60.2091H127.091C127.562 60.2091 128.014 60.0232 128.347 59.6919C128.68 59.3606 128.867 58.9115 128.867 58.4433C128.867 57.9745 128.68 57.5255 128.347 57.1941C128.014 56.8628 127.562 56.6769 127.091 56.6769H119.968C119.497 56.6769 119.045 56.8628 118.713 57.1941C118.379 57.5255 118.192 57.9745 118.192 58.4433C118.192 58.9115 118.379 59.3606 118.713 59.6919C119.045 60.0232 119.497 60.2091 119.968 60.2091Z" fill="#00B021"/>
<path d="M162.641 73.6142C162.993 73.3036 163.208 72.867 163.236 72.3997C163.266 71.9324 163.107 71.4725 162.795 71.1219C161.057 69.1884 158.962 67.604 156.625 66.4547C156.416 66.3484 156.189 66.2846 155.955 66.2663C155.722 66.2485 155.487 66.2762 155.265 66.3489C155.042 66.4211 154.836 66.5368 154.659 66.6886C154.481 66.8405 154.335 67.0259 154.231 67.2341C154.125 67.4423 154.062 67.6688 154.046 67.9012C154.029 68.1336 154.058 68.367 154.133 68.5875C154.207 68.8086 154.324 69.0128 154.479 69.1884C154.633 69.3639 154.82 69.5073 155.03 69.6107C156.96 70.5631 158.692 71.8701 160.135 73.4624C160.29 73.636 160.477 73.7779 160.687 73.8797C160.896 73.9816 161.124 74.0409 161.357 74.0553C161.589 74.0696 161.823 74.038 162.043 73.9628C162.264 73.8872 162.467 73.7695 162.642 73.6157L162.641 73.6142Z" fill="#00B021"/>
<path d="M175.462 101.714C175.933 101.691 176.374 101.483 176.69 101.136C177.007 100.789 177.171 100.332 177.148 99.864C177.005 97.2742 176.365 94.7355 175.261 92.3856C175.165 92.1734 175.028 91.9821 174.857 91.8228C174.686 91.6636 174.485 91.5395 174.266 91.4579C174.046 91.3758 173.813 91.3382 173.579 91.3466C173.345 91.355 173.115 91.4094 172.902 91.5063C172.689 91.6038 172.498 91.7417 172.339 91.9128C172.18 92.0834 172.057 92.2842 171.976 92.5028C171.895 92.7213 171.859 92.9538 171.869 93.1867C171.879 93.4191 171.935 93.6475 172.034 93.8587C172.943 95.8021 173.475 97.8993 173.602 100.039C173.613 100.27 173.67 100.498 173.77 100.708C173.87 100.917 174.01 101.105 174.183 101.261C174.355 101.417 174.558 101.537 174.777 101.615C174.997 101.693 175.23 101.728 175.462 101.716V101.714Z" fill="#00B021"/>
<path d="M171.328 86.8294C171.767 86.6592 172.12 86.323 172.309 85.8947C172.499 85.466 172.509 84.9799 172.339 84.5438C171.38 82.1316 169.966 79.9246 168.172 78.042C168.014 77.8709 167.822 77.7324 167.61 77.635C167.397 77.5381 167.167 77.4832 166.933 77.4748C166.699 77.4664 166.465 77.5035 166.246 77.5851C166.027 77.6667 165.826 77.7908 165.654 77.9495C165.484 78.1088 165.346 78.2996 165.249 78.5123C165.153 78.7244 165.1 78.9534 165.093 79.1863C165.085 79.4192 165.125 79.6511 165.208 79.8687C165.291 80.0863 165.418 80.2856 165.578 80.4542C167.058 82.0124 168.229 83.8346 169.03 85.825C169.114 86.0411 169.241 86.2384 169.402 86.4061C169.563 86.5737 169.756 86.7082 169.969 86.8017C170.183 86.8951 170.413 86.9456 170.646 86.9505C170.879 86.9559 171.111 86.9149 171.328 86.8308L171.328 86.8294Z" fill="#00B021"/>
<path d="M147.903 63.7003C148.13 63.2899 148.185 62.8072 148.054 62.3572C147.924 61.9072 147.619 61.5275 147.207 61.301C144.917 60.0603 142.409 59.2676 139.819 58.9654C139.587 58.9353 139.351 58.9511 139.125 59.0119C138.899 59.0727 138.688 59.1776 138.502 59.32C138.317 59.4629 138.162 59.6404 138.046 59.8427C137.93 60.0449 137.856 60.2685 137.827 60.4994C137.798 60.7303 137.816 60.9652 137.878 61.1897C137.941 61.4137 138.048 61.6239 138.192 61.8069C138.337 61.9903 138.516 62.1431 138.72 62.2574C138.925 62.3711 139.15 62.4438 139.382 62.471C141.522 62.7237 143.595 63.3759 145.492 64.3936C145.696 64.5059 145.92 64.5771 146.152 64.6028C146.384 64.6285 146.619 64.6087 146.843 64.5444C147.067 64.4802 147.276 64.3729 147.458 64.228C147.64 64.0831 147.792 63.9041 147.905 63.7013L147.903 63.7003Z" fill="#00B021"/>
<path d="M167.148 107.629C167.148 108.098 167.335 108.547 167.669 108.878C168.001 109.21 168.453 109.396 168.924 109.396H176.047C176.518 109.396 176.97 109.21 177.303 108.878C177.636 108.547 177.823 108.098 177.823 107.629C177.823 107.161 177.636 106.712 177.303 106.381C176.97 106.049 176.518 105.863 176.047 105.863H168.924C168.453 105.863 168.001 106.049 167.669 106.381C167.335 106.712 167.148 107.161 167.148 107.629Z" fill="#00B021"/>
<path d="M150.83 107.629C150.83 108.098 151.017 108.547 151.35 108.878C151.683 109.21 152.135 109.396 152.606 109.396H159.729C160.2 109.396 160.651 109.21 160.984 108.878C161.318 108.547 161.504 108.098 161.504 107.629C161.504 107.161 161.318 106.712 160.984 106.381C160.651 106.049 160.2 105.863 159.729 105.863H152.606C152.135 105.863 151.683 106.049 151.35 106.381C151.017 106.712 150.83 107.161 150.83 107.629Z" fill="#00B021"/>
<path d="M134.017 107.629C134.017 108.098 134.204 108.547 134.537 108.878C134.87 109.21 135.321 109.396 135.792 109.396H142.915C143.386 109.396 143.838 109.21 144.171 108.878C144.504 108.547 144.691 108.098 144.691 107.629C144.691 107.161 144.504 106.712 144.171 106.381C143.838 106.049 143.386 105.863 142.915 105.863H135.792C135.321 105.863 134.87 106.049 134.537 106.381C134.204 106.712 134.017 107.161 134.017 107.629Z" fill="#00B021"/>
<path d="M117.203 107.629C117.203 108.098 117.39 108.547 117.723 108.878C118.056 109.21 118.508 109.396 118.979 109.396H126.102C126.573 109.396 127.024 109.21 127.357 108.878C127.691 108.547 127.878 108.098 127.878 107.629C127.878 107.161 127.691 106.712 127.357 106.381C127.024 106.049 126.573 105.863 126.102 105.863H118.979C118.508 105.863 118.056 106.049 117.723 106.381C117.39 106.712 117.203 107.161 117.203 107.629Z" fill="#00B021"/>
<path d="M100.39 107.629C100.39 108.098 100.577 108.547 100.91 108.878C101.243 109.21 101.694 109.396 102.165 109.396H109.288C109.76 109.396 110.211 109.21 110.544 108.878C110.877 108.547 111.064 108.098 111.064 107.629C111.064 107.161 110.877 106.712 110.544 106.381C110.211 106.049 109.76 105.863 109.288 105.863H102.165C101.694 105.863 101.243 106.049 100.91 106.381C100.577 106.712 100.39 107.161 100.39 107.629Z" fill="#00B021"/>
<path d="M84.0713 107.629C84.0713 108.098 84.2582 108.547 84.5915 108.878C84.9243 109.21 85.3758 109.396 85.8471 109.396H92.9699C93.4412 109.396 93.8927 109.21 94.2255 108.878C94.5588 108.547 94.7457 108.098 94.7457 107.629C94.7457 107.161 94.5588 106.712 94.2255 106.381C93.8927 106.049 93.4412 105.863 92.9699 105.863H85.8471C85.3758 105.863 84.9243 106.049 84.5915 106.381C84.2582 106.712 84.0713 107.161 84.0713 107.629Z" fill="#00B021"/>
<path d="M68.7422 107.629C68.7422 108.098 68.9291 108.547 69.2624 108.878C69.5952 109.21 70.0467 109.396 70.518 109.396H77.6408C78.1121 109.396 78.5636 109.21 78.8964 108.878C79.2297 108.547 79.4166 108.098 79.4166 107.629C79.4166 107.161 79.2297 106.712 78.8964 106.381C78.5636 106.049 78.1121 105.863 77.6408 105.863H70.518C70.0467 105.863 69.5952 106.049 69.2624 106.381C68.9291 106.712 68.7422 107.161 68.7422 107.629Z" fill="#00B021"/>
<path d="M84.5094 73.3456C84.1569 73.0355 83.9422 72.5989 83.9136 72.1311C83.8844 71.6638 84.0436 71.2044 84.3552 70.8533C86.0933 68.9198 88.1876 67.3354 90.5251 66.1861C90.7338 66.0803 90.9613 66.0165 91.1947 65.9982C91.4281 65.9799 91.663 66.0081 91.8855 66.0803C92.108 66.153 92.3142 66.2682 92.4913 66.42C92.6688 66.5723 92.8147 66.7573 92.9195 66.9655C93.0248 67.1737 93.0876 67.4006 93.1044 67.6326C93.1213 67.865 93.0916 68.0984 93.0169 68.3194C92.9427 68.54 92.8255 68.7442 92.6713 68.9198C92.5175 69.0953 92.33 69.2387 92.1204 69.3421C90.1898 70.295 88.4576 71.602 87.0146 73.1938C86.8603 73.3678 86.6729 73.5098 86.4632 73.6111C86.2536 73.713 86.0261 73.7728 85.7932 73.7872C85.5608 73.8015 85.3274 73.7699 85.1068 73.6942C84.8863 73.619 84.683 73.5009 84.508 73.3476L84.5094 73.3456Z" fill="#00B021"/>
<path d="M71.1918 101.446C70.7216 101.423 70.28 101.215 69.964 100.868C69.6475 100.521 69.4828 100.063 69.5061 99.5954C69.649 97.0057 70.2894 94.4674 71.3931 92.1175C71.489 91.9049 71.6265 91.7135 71.7976 91.5543C71.9687 91.395 72.1695 91.2709 72.3885 91.1893C72.6081 91.1077 72.8415 91.0701 73.0754 91.0781C73.3093 91.0865 73.5393 91.1409 73.7524 91.2383C73.965 91.3352 74.1564 91.4732 74.3156 91.6443C74.4744 91.8154 74.598 92.0161 74.6786 92.2347C74.7592 92.4533 74.7958 92.6857 74.7859 92.9181C74.7755 93.151 74.7196 93.3795 74.6207 93.5906C73.7113 95.5341 73.1798 97.6308 73.0527 99.7705C73.0413 100.002 72.9844 100.229 72.8845 100.439C72.7846 100.649 72.6447 100.837 72.4716 100.993C72.299 101.149 72.0968 101.269 71.8772 101.347C71.6577 101.425 71.4248 101.459 71.1918 101.448V101.446Z" fill="#00B021"/>
<path d="M75.4502 86.5608C75.0116 86.3912 74.6585 86.0549 74.4686 85.6262C74.2792 85.1979 74.2683 84.7118 74.439 84.2752C75.3973 81.863 76.8116 79.656 78.6057 77.7739C78.7644 77.6023 78.9558 77.4644 79.1684 77.3669C79.381 77.2695 79.611 77.2151 79.8449 77.2062C80.0793 77.1978 80.3127 77.2354 80.5318 77.317C80.7513 77.3986 80.9521 77.5222 81.1232 77.6815C81.2943 77.8402 81.4323 78.0316 81.5287 78.2437C81.6251 78.4558 81.6785 78.6853 81.6854 78.9182C81.6924 79.1506 81.6533 79.3825 81.5697 79.6001C81.4866 79.8182 81.3605 80.017 81.1993 80.1861C79.7193 81.7443 78.5483 83.5661 77.7482 85.5565C77.6636 85.7726 77.537 85.9704 77.3758 86.138C77.2146 86.3056 77.0218 86.4396 76.8086 86.5331C76.595 86.6266 76.3651 86.6775 76.1321 86.6824C75.8987 86.6874 75.6668 86.6468 75.4497 86.5628L75.4502 86.5608Z" fill="#00B021"/>
<path d="M99.2464 63.4318C99.0189 63.0218 98.9645 62.5387 99.095 62.0887C99.2256 61.6387 99.5302 61.2589 99.9426 61.0324C102.232 59.7917 104.74 58.999 107.33 58.6974C107.562 58.6672 107.798 58.683 108.024 58.7439C108.25 58.8047 108.462 58.909 108.647 59.0519C108.832 59.1943 108.987 59.3719 109.103 59.5741C109.219 59.7769 109.293 59.9999 109.322 60.2313C109.351 60.4623 109.334 60.6967 109.271 60.9212C109.208 61.1457 109.101 61.3553 108.957 61.5388C108.813 61.7218 108.633 61.8751 108.429 61.9888C108.225 62.103 108 62.1757 107.767 62.2024C105.627 62.4551 103.554 63.1079 101.658 64.1256C101.453 64.2378 101.229 64.3085 100.997 64.3347C100.765 64.3604 100.531 64.3407 100.307 64.2764C100.083 64.2121 99.8734 64.1043 99.6914 63.9599C99.5089 63.815 99.3571 63.636 99.2444 63.4328L99.2464 63.4318Z" fill="#00B021"/>
<path d="M55.1432 53.2761C69.7455 53.2761 81.5835 41.4849 81.5835 26.9402C81.5835 12.3955 69.7455 0.60437 55.1432 0.60437C40.5409 0.60437 28.7031 12.3955 28.7031 26.9402C28.7195 41.4781 40.5478 53.2598 55.1432 53.2761ZM55.1432 4.11581C67.7986 4.11581 78.0581 14.3347 78.0581 26.9402C78.0581 39.5457 67.7986 49.7646 55.1432 49.7646C42.4878 49.7646 32.2285 39.5457 32.2285 26.9402C32.2431 14.3406 42.4938 4.13039 55.1432 4.11581Z" fill="#98DF90"/>
<path d="M55.1433 4.11584C67.7986 4.11584 78.0582 14.3347 78.0582 26.9402C78.0582 39.5458 67.7986 49.7646 55.1433 49.7646C42.4878 49.7646 32.2285 39.5458 32.2285 26.9402C32.2431 14.3407 42.4938 4.13042 55.1433 4.11584Z" fill="#98DF90"/>
<path d="M47.1875 22.9375C47.1875 25.1139 45.4264 26.875 43.25 26.875C41.0736 26.875 39.3125 25.1139 39.3125 22.9375C39.3125 20.7611 41.0736 19 43.25 19C45.4264 19 47.1875 20.7611 47.1875 22.9375Z" fill="#008C00"/>
<path d="M70.8125 22.9375C70.8125 25.1139 69.0514 26.875 66.875 26.875C64.6986 26.875 62.9375 25.1139 62.9375 22.9375C62.9375 20.7611 64.6986 19 66.875 19C69.0514 19 70.8125 20.7611 70.8125 22.9375Z" fill="#008C00"/>
<path d="M55.0626 35.875C57.676 35.875 60.2891 36.8587 62.2785 38.8262C63.1572 39.6952 63.1572 41.1041 62.2785 41.9733C61.3999 42.8422 59.9753 42.8422 59.0964 41.9733C56.8721 39.7733 53.2528 39.7733 51.0286 41.9733C50.15 42.8422 48.7254 42.8422 47.8465 41.9733C46.9678 41.1043 46.9678 39.6954 47.8465 38.8262C49.8362 36.8587 52.4492 35.875 55.0626 35.875Z" fill="#008C00"/>
<path d="M58.6682 56.7239H51.6175C23.4001 56.7565 0.532706 79.5339 0.5 107.64C0.5 108.609 1.28925 109.396 2.26267 109.396H108.023C108.996 109.396 109.786 108.609 109.786 107.64C109.753 79.5339 86.8857 56.7565 58.6682 56.7239ZM4.05891 105.884C5.03492 80.4166 26.0303 60.2635 51.6175 60.2354H58.6682C84.2554 60.2635 105.251 80.4166 106.227 105.884H4.05891Z" fill="#98DF90"/>
<path d="M4.05859 105.884C5.0346 80.4166 26.03 60.2635 51.6172 60.2354H58.6679C84.2551 60.2635 105.25 80.4166 106.226 105.884H4.05859Z" fill="#98DF90"/>
</g>
<defs>
<clipPath id="clip0_857_4694">
<rect width="180" height="108.791" fill="white" transform="translate(0.5 0.60437)"/>
</clipPath>
</defs>
</svg>
