<svg width="24" height="24" viewBox="0 0 24 24" fill="none" xmlns="http://www.w3.org/2000/svg">
<mask id="mask0_123_187" style="mask-type:luminance" maskUnits="userSpaceOnUse" x="0" y="0" width="24" height="24">
<path d="M24 0H0V24H24V0Z" fill="white"/>
</mask>
<g mask="url(#mask0_123_187)">
<path d="M11.9999 23.9999C18.6273 23.9999 23.9999 18.6273 23.9999 11.9999C23.9999 5.37255 18.6273 0 11.9999 0C5.37255 0 0 5.37255 0 11.9999C0 18.6273 5.37255 23.9999 11.9999 23.9999Z" fill="#15D43F"/>
<path d="M11.7854 7.30603C11.9383 7.35924 12.0979 7.38583 12.2553 7.38583C12.4725 7.38583 12.6875 7.33485 12.8782 7.2351C13.3813 6.97132 13.6473 6.45706 13.572 5.89846C13.4922 5.30884 13.071 4.84556 12.4969 4.72143C11.976 4.60616 11.4506 4.77907 11.1292 5.1714C10.8145 5.55488 10.7502 6.07358 10.963 6.55902C11.1159 6.9026 11.413 7.17746 11.7854 7.30603ZM11.3819 5.37534C11.5748 5.14037 11.8674 5.0096 12.1799 5.0096C12.2619 5.0096 12.3462 5.01845 12.4282 5.03619C12.8671 5.1315 13.1906 5.48838 13.2505 5.94058C13.3082 6.36839 13.1132 6.74522 12.7274 6.94693C12.4769 7.07772 12.1733 7.09766 11.8918 6.99792C11.6058 6.89818 11.3775 6.68759 11.26 6.42381C11.1004 6.05806 11.1448 5.66351 11.3819 5.37534Z" fill="white" stroke="white" stroke-width="0.208694"/>
<path d="M11.1911 9.26949C11.0935 9.68634 11.2221 10.0234 11.2598 10.0079C11.3042 9.99898 11.2532 9.67969 11.3419 9.30275C11.4239 8.92581 11.6102 8.66195 11.5747 8.63312C11.5481 8.6043 11.2842 8.85264 11.1911 9.26949Z" fill="white" stroke="white" stroke-width="0.208694"/>
<path d="M12.4503 5.67425C12.5545 5.73191 12.6366 5.7962 12.6743 5.77181C12.7097 5.75185 12.6676 5.61882 12.5279 5.53899C12.3882 5.45917 12.253 5.48799 12.253 5.53012C12.2507 5.57447 12.3483 5.61438 12.4503 5.67425Z" fill="white" stroke="white" stroke-width="0.208694"/>
<path d="M18.4913 16.9218L15.0627 16.9684C15.0827 16.6913 15.0871 16.4143 15.0916 16.1439C15.096 15.8602 15.1027 15.5698 15.1226 15.2841C15.1825 14.4729 15.0095 13.8235 14.6062 13.3536C14.4798 13.2074 14.3536 13.0766 14.2294 12.9503C13.9081 12.6201 13.6311 12.3364 13.4626 11.8666C13.2809 11.3568 13.303 10.8626 13.3274 10.3374C13.3274 10.3285 13.3274 10.3218 13.3274 10.313C13.6244 10.559 14.0344 10.754 14.1053 10.7784C14.7303 11.0044 15.6545 11.0022 16.3925 10.9779C16.7139 10.9668 17.1194 10.7806 17.2325 10.457C17.279 10.3241 17.31 10.0625 16.993 9.78551C16.7161 9.54615 16.202 9.53508 15.7387 9.55502L15.5769 9.56389C15.2267 9.58383 14.8943 9.60156 14.6107 9.4442C14.3602 9.30458 14.2161 9.10956 14.0477 8.88572C13.9945 8.81479 13.9392 8.74165 13.8815 8.66852C13.5646 8.27625 13.1014 7.94825 12.6448 7.79311C12.2282 7.65126 11.7096 7.74657 11.2863 7.98813C11.2841 7.98813 11.2818 7.98813 11.2818 7.99035L11.0447 8.10117C10.4064 8.39592 9.531 8.8015 9.10326 9.3068C8.58245 9.91849 8.40515 10.7341 8.25001 11.4543C8.24114 11.4987 8.22785 11.5474 8.21676 11.5962C8.14585 11.8799 8.0572 12.2345 8.22563 12.5093C8.38964 12.7774 8.5891 12.8284 8.72207 12.8284C8.74202 12.8284 8.76197 12.8262 8.77969 12.8262C9.10548 12.7885 9.38695 12.4472 9.48668 12.1436C9.55759 11.9264 9.58641 11.6981 9.613 11.4765C9.64847 11.1884 9.6817 10.9158 9.80361 10.6875C9.90776 10.4881 10.136 10.3529 10.3577 10.2199C10.3732 10.211 10.3887 10.2022 10.4042 10.1911V10.2022C10.453 10.6255 10.5217 11.0532 10.5948 11.5053C10.8519 13.101 11.1178 14.7499 10.3976 16.1262C10.3023 16.308 10.1161 16.5229 9.91885 16.7512C9.83906 16.842 9.75705 16.9373 9.67728 17.0349L5.5063 17.088C5.41765 17.088 5.34451 17.1634 5.34673 17.2521C5.34673 17.3406 5.41986 17.4116 5.50852 17.4116H5.51074L9.42683 17.3606C9.12321 17.8039 8.95034 18.2848 9.28943 18.7525C9.45122 18.9785 9.6529 19.0916 9.89003 19.0916H9.90112C10.5549 19.0805 11.2508 18.1673 11.7184 17.4803C11.745 17.4404 11.7805 17.3894 11.816 17.3319L13.303 17.3142C13.292 17.4914 13.2787 17.6665 13.2698 17.8437C13.2543 18.1163 13.272 18.615 13.569 18.8787C13.6777 18.9741 13.8704 19.0761 14.1719 19.0228C14.8389 18.9031 14.9785 17.7618 15.0295 17.3319C15.0317 17.3186 15.0317 17.3075 15.0339 17.2942L18.4958 17.2476C18.5843 17.2476 18.6575 17.1722 18.6553 17.0835C18.6531 16.9928 18.5821 16.9218 18.4913 16.9218ZM10.1892 9.93843C9.94101 10.0847 9.66176 10.2531 9.51327 10.5324C9.36478 10.8138 9.3271 11.1286 9.28943 11.4344C9.26284 11.6494 9.23846 11.8533 9.1764 12.0394C9.09883 12.2721 8.89937 12.4827 8.73981 12.5026C8.70878 12.5071 8.60905 12.5181 8.50045 12.3386C8.40293 12.1791 8.47385 11.8998 8.52926 11.6737C8.54256 11.6206 8.55585 11.5696 8.56694 11.5208C8.72207 10.805 8.88386 10.0648 9.35148 9.51513C9.62409 9.19377 10.1294 8.90566 10.6192 8.66187C10.6059 8.69068 10.5904 8.71949 10.5771 8.74831C10.4485 9.06522 10.3843 9.43313 10.3843 9.81654C10.32 9.85864 10.2557 9.89853 10.1892 9.93843ZM12.5185 14.2845C12.5119 14.1448 12.5052 14.0097 12.5008 13.8789C12.5518 13.9055 12.6072 13.9365 12.6736 13.9698C12.8598 14.0672 13.1746 14.2313 13.2254 14.289C13.4692 14.5858 13.4383 15.0159 13.4073 15.4325C13.4006 15.5345 13.3917 15.6342 13.3895 15.7295C13.3762 16.1483 13.3474 16.5739 13.3208 16.9905L12.0088 17.0061C12.1905 16.6802 12.39 16.2592 12.4697 15.8535C12.5695 15.3615 12.5451 14.8141 12.5185 14.2845ZM14.799 15.2597C14.7768 15.5522 14.7724 15.8491 14.7657 16.1372C14.7591 16.5185 14.7524 16.9107 14.706 17.292C14.5973 18.1762 14.3979 18.6505 14.112 18.7015C13.9701 18.7281 13.8616 18.7059 13.7817 18.6349C13.6422 18.5109 13.569 18.2205 13.5912 17.8615C13.6045 17.6265 13.62 17.3894 13.6355 17.1545C13.6666 16.6913 13.6976 16.2126 13.713 15.7384C13.7152 15.6475 13.7241 15.5522 13.7307 15.4547C13.764 14.9982 13.8017 14.4795 13.4759 14.0805C13.3962 13.9831 13.1768 13.8656 12.8221 13.6795C12.6936 13.6129 12.5185 13.5222 12.4631 13.4822C12.4343 13.4423 12.3855 13.4135 12.3323 13.4135C12.2437 13.4135 12.1706 13.4845 12.1706 13.5752C12.1683 13.8057 12.1794 14.0452 12.1927 14.2956C12.2171 14.8054 12.2415 15.3327 12.1528 15.7827C12.0686 16.2015 11.8049 16.7645 11.4481 17.292C10.7898 18.2605 10.2668 18.7547 9.89447 18.7591C9.89225 18.7591 9.89003 18.7591 9.88782 18.7591C9.75927 18.7591 9.64847 18.6926 9.54874 18.5552C9.22073 18.103 9.59528 17.6066 10.1582 16.9528C10.3687 16.7113 10.566 16.4808 10.679 16.2658C11.4503 14.7943 11.1755 13.0899 10.9095 11.4433C10.8364 10.9956 10.7699 10.5723 10.7211 10.1556C10.7123 10.0714 10.7056 9.98719 10.7034 9.90075C10.6923 9.52621 10.7522 9.16717 10.874 8.86355C10.9693 8.62863 11.1688 8.42474 11.4126 8.27847L11.417 8.27625C11.4193 8.27625 11.4193 8.27403 11.4215 8.27181C11.7672 8.0657 12.1994 7.97706 12.5362 8.0923C12.9374 8.22971 13.3452 8.51781 13.6267 8.86576C13.6843 8.93669 13.7352 9.00539 13.7862 9.07409C13.9679 9.31788 14.1408 9.54837 14.4489 9.72123C14.8145 9.92513 15.2267 9.90297 15.5924 9.88302L15.7497 9.87415C15.9715 9.8653 16.5631 9.8387 16.7781 10.0249C16.9089 10.1379 16.9577 10.2443 16.9244 10.3418C16.869 10.4969 16.6186 10.6365 16.3792 10.6454C15.7276 10.6676 14.7946 10.6764 14.2161 10.4659C13.9503 10.3706 13.3651 9.98497 13.343 9.84314C13.343 9.75448 13.272 9.67913 13.1834 9.67913H13.1812C13.0925 9.67913 13.0194 9.75004 13.0194 9.8387C13.0172 10.0005 13.0105 10.1578 13.0039 10.313C12.9773 10.8715 12.9529 11.3967 13.159 11.9663C13.3518 12.5026 13.6666 12.8262 13.9989 13.1675C14.1186 13.2895 14.2405 13.4157 14.3624 13.5553C14.706 13.9676 14.8544 14.5372 14.799 15.2597Z" fill="white" stroke="white" stroke-width="0.208694"/>
</g>
</svg>
