<svg width="16" height="16" viewBox="0 0 16 16" fill="none" xmlns="http://www.w3.org/2000/svg">
<path d="M14.6807 2.0266H12.8356V1.67104C12.8356 1.37651 12.5968 1.1377 12.3022 1.1377C12.0077 1.1377 11.7689 1.37648 11.7689 1.67104V2.0266H4.23113V1.67104C4.23113 1.37651 3.99235 1.1377 3.69779 1.1377C3.40326 1.1377 3.16444 1.37648 3.16444 1.67104V2.0266H1.31928C0.591845 2.0266 0 2.61845 0 3.34589C0 3.46736 0 13.4406 0 13.5428C0 14.2703 0.591845 14.8622 1.31928 14.8622H14.6807C15.4082 14.8622 16 14.2703 16 13.5429C16 13.4404 16 3.46642 16 3.34592C16 2.61845 15.4082 2.0266 14.6807 2.0266ZM14.9334 13.5429C14.9334 13.6822 14.82 13.7955 14.6807 13.7955H1.31928C1.17997 13.7955 1.06666 13.6822 1.06666 13.5429V5.83105H14.9333V13.5429H14.9334ZM14.9334 4.76439H1.06666V3.34589C1.06666 3.20661 1.17997 3.09326 1.31928 3.09326H3.16444V3.23548C3.16444 3.53001 3.40323 3.76883 3.69779 3.76883C3.99232 3.76883 4.23113 3.53004 4.23113 3.23548V3.09326H11.7689V3.23548C11.7689 3.53001 12.0077 3.76883 12.3023 3.76883C12.5968 3.76883 12.8356 3.53004 12.8356 3.23548V3.09326H14.6808C14.8201 3.09326 14.9334 3.20661 14.9334 3.34589V4.76439H14.9334Z" fill="#454545"/>
<path d="M3.80482 7.96436H3.0226C2.72807 7.96436 2.48926 8.20314 2.48926 8.4977C2.48926 8.79226 2.72804 9.03105 3.0226 9.03105H3.80482C4.09935 9.03105 4.33817 8.79226 4.33817 8.4977C4.33817 8.20314 4.09939 7.96436 3.80482 7.96436Z" fill="#454545"/>
<path d="M6.86244 7.96436H6.08022C5.78569 7.96436 5.54688 8.20314 5.54688 8.4977C5.54688 8.79226 5.78566 9.03105 6.08022 9.03105H6.86244C7.15697 9.03105 7.39579 8.79226 7.39579 8.4977C7.39579 8.20314 7.15697 7.96436 6.86244 7.96436Z" fill="#454545"/>
<path d="M9.92006 7.96436H9.13784C8.8433 7.96436 8.60449 8.20314 8.60449 8.4977C8.60449 8.79226 8.84327 9.03105 9.13784 9.03105H9.92006C10.2146 9.03105 10.4534 8.79226 10.4534 8.4977C10.4534 8.20314 10.2146 7.96436 9.92006 7.96436Z" fill="#454545"/>
<path d="M12.9777 7.96436H12.1955C11.9009 7.96436 11.6621 8.20314 11.6621 8.4977C11.6621 8.79226 11.9009 9.03105 12.1955 9.03105H12.9777C13.2722 9.03105 13.511 8.79226 13.511 8.4977C13.511 8.20314 13.2722 7.96436 12.9777 7.96436Z" fill="#454545"/>
<path d="M3.80482 10.5955H3.0226C2.72807 10.5955 2.48926 10.8342 2.48926 11.1288C2.48926 11.4234 2.72804 11.6621 3.0226 11.6621H3.80482C4.09935 11.6621 4.33817 11.4234 4.33817 11.1288C4.33817 10.8342 4.09939 10.5955 3.80482 10.5955Z" fill="#454545"/>
<path d="M6.86244 10.5955H6.08022C5.78569 10.5955 5.54688 10.8342 5.54688 11.1288C5.54688 11.4234 5.78566 11.6621 6.08022 11.6621H6.86244C7.15697 11.6621 7.39579 11.4234 7.39579 11.1288C7.39579 10.8342 7.15697 10.5955 6.86244 10.5955Z" fill="#454545"/>
<path d="M9.92006 10.5955H9.13784C8.8433 10.5955 8.60449 10.8342 8.60449 11.1288C8.60449 11.4234 8.84327 11.6621 9.13784 11.6621H9.92006C10.2146 11.6621 10.4534 11.4234 10.4534 11.1288C10.4534 10.8342 10.2146 10.5955 9.92006 10.5955Z" fill="#454545"/>
<path d="M12.9777 10.5955H12.1955C11.9009 10.5955 11.6621 10.8342 11.6621 11.1288C11.6621 11.4234 11.9009 11.6621 12.1955 11.6621H12.9777C13.2722 11.6621 13.511 11.4234 13.511 11.1288C13.511 10.8342 13.2722 10.5955 12.9777 10.5955Z" fill="#454545"/>
</svg>
