<svg width="24" height="24" viewBox="0 0 24 24" fill="none" xmlns="http://www.w3.org/2000/svg">
<path d="M22.4096 2.56509L14.9471 22.0201C14.8927 22.161 14.797 22.2823 14.6725 22.3679C14.5481 22.4536 14.4006 22.4996 14.2496 22.5001H14.1971C14.0377 22.4883 13.8863 22.4259 13.7649 22.322C13.6434 22.2181 13.5584 22.0782 13.5221 21.9226L11.3771 12.6226L2.07706 10.5001C1.92282 10.462 1.78466 10.3759 1.68249 10.2543C1.58033 10.1326 1.51943 9.98165 1.50859 9.82315C1.49774 9.66465 1.53751 9.5068 1.62215 9.37235C1.7068 9.23791 1.83195 9.13382 1.97956 9.07509L21.4346 1.59009C21.5709 1.53553 21.7202 1.52217 21.864 1.55168C22.0078 1.58118 22.1398 1.65224 22.2436 1.75605C22.3474 1.85986 22.4185 1.99185 22.448 2.13567C22.4775 2.27948 22.4641 2.42879 22.4096 2.56509Z" fill="#5D5D5D"/>
</svg>
