<svg width="61" height="60" viewBox="0 0 61 60" fill="none" xmlns="http://www.w3.org/2000/svg">
<path d="M30.5 0C17.835 0 7.53125 10.3037 7.53125 22.9688C7.53125 27.0227 8.60234 31.0084 10.6285 34.4948C11.101 35.3077 11.6291 36.0996 12.1982 36.8491L29.5021 60H31.498L48.8016 36.849C49.3709 36.0996 49.899 35.3075 50.3714 34.4947C52.3977 31.0084 53.4688 27.0227 53.4688 22.9688C53.4688 10.3037 43.165 0 30.5 0ZM47.3319 32.7282C46.9306 33.4186 46.4819 34.0914 45.998 34.7279L30.5 55.4629L15.0104 34.7392L15.002 34.7279C14.5181 34.0915 14.0694 33.4187 13.6681 32.7282C11.9532 29.7777 11.0469 26.4029 11.0469 22.9688C11.0469 12.2422 19.7736 3.51562 30.5 3.51562C41.2264 3.51562 49.9531 12.2422 49.9531 22.9688C49.9531 26.4029 49.0468 29.7777 47.3319 32.7282Z" fill="#009E00"/>
<path d="M47.3319 32.7282C46.9306 33.4186 46.4819 34.0914 45.998 34.7279L30.5 55.4629L15.0104 34.7392L15.002 34.7279C14.5181 34.0915 14.0694 33.4187 13.6681 32.7282C11.9532 29.7777 11.0469 26.4029 11.0469 22.9688C11.0469 12.2422 19.7736 3.51562 30.5 3.51562C41.2264 3.51562 49.9531 12.2422 49.9531 22.9688C49.9531 26.4029 49.0468 29.7777 47.3319 32.7282Z" fill="#009E00"/>
<path d="M30.4922 15.3501C26.2921 15.3501 22.875 18.7672 22.875 22.9673C22.875 27.1674 26.2921 30.5845 30.4922 30.5845C34.6923 30.5845 38.1094 27.1674 38.1094 22.9673C38.1094 18.7672 34.6923 15.3501 30.4922 15.3501ZM30.4922 27.0688C28.2306 27.0688 26.3906 25.2289 26.3906 22.9673C26.3906 20.7057 28.2306 18.8657 30.4922 18.8657C32.7538 18.8657 34.5938 20.7057 34.5938 22.9673C34.5938 25.2289 32.7538 27.0688 30.4922 27.0688Z" fill="white"/>
<path d="M30.4922 27.0688C28.2306 27.0688 26.3906 25.2289 26.3906 22.9673C26.3906 20.7057 28.2306 18.8657 30.4922 18.8657C32.7538 18.8657 34.5938 20.7057 34.5938 22.9673C34.5938 25.2289 32.7538 27.0688 30.4922 27.0688Z" fill="white"/>
</svg>
