<svg width="17" height="16" viewBox="0 0 17 16" fill="none" xmlns="http://www.w3.org/2000/svg">
<path d="M8.5 4.09375C7.37997 4.09375 6.46875 5.00497 6.46875 6.125C6.46875 7.24503 7.37997 8.15625 8.5 8.15625C9.62003 8.15625 10.5312 7.24503 10.5312 6.125C10.5312 5.00497 9.62003 4.09375 8.5 4.09375ZM8.5 7.21875C7.89691 7.21875 7.40625 6.72809 7.40625 6.125C7.40625 5.52191 7.89691 5.03125 8.5 5.03125C9.10309 5.03125 9.59375 5.52191 9.59375 6.125C9.59375 6.72809 9.10309 7.21875 8.5 7.21875Z" fill="#454545"/>
<path d="M8.5 0C5.12266 0 2.375 2.74766 2.375 6.125C2.375 7.20606 2.66062 8.26891 3.20094 9.19862C3.32694 9.41537 3.46775 9.62656 3.61953 9.82644L8.23391 16H8.76612L13.3804 9.82641C13.5323 9.62656 13.6731 9.41534 13.799 9.19859C14.3394 8.26891 14.625 7.20606 14.625 6.125C14.625 2.74766 11.8773 0 8.5 0ZM12.9885 8.72753C12.8815 8.91163 12.7618 9.09103 12.6328 9.26078L8.5 14.7901L4.36944 9.26378L4.36719 9.26078C4.23816 9.09106 4.1185 8.91166 4.0115 8.72753C3.55419 7.94072 3.3125 7.04078 3.3125 6.125C3.3125 3.26459 5.63963 0.9375 8.5 0.9375C11.3604 0.9375 13.6875 3.26459 13.6875 6.125C13.6875 7.04078 13.4458 7.94072 12.9885 8.72753Z" fill="#454545"/>
</svg>
