<svg width="16" height="16" viewBox="0 0 16 16" fill="none" xmlns="http://www.w3.org/2000/svg">
<g clip-path="url(#clip0_528_933)">
<path d="M7.99998 0.000244141C3.58844 0.000244141 0 3.58896 0 8.00026C0 12.4116 3.58844 16 7.99998 16C12.4113 16 16 12.4118 16 8.00026C16 3.58868 12.4116 0.000244141 7.99998 0.000244141ZM8.51194 14.9575V14.1615C8.51194 13.8787 8.28285 13.6496 7.99998 13.6496C7.71711 13.6496 7.48803 13.8787 7.48803 14.1615V14.9575C4.04862 14.7068 1.29345 11.9513 1.04276 8.51194H1.83872C2.12131 8.51194 2.35068 8.28313 2.35068 8.00026C2.35068 7.71739 2.12159 7.4883 1.83872 7.4883H1.04276C1.29332 4.04877 4.04855 1.29344 7.48806 1.04276V1.83871C7.48806 2.12133 7.71715 2.35067 8.00002 2.35067C8.28261 2.35067 8.51169 2.12133 8.51198 1.83871V1.04276C11.9514 1.29347 14.7066 4.04886 14.9572 7.4883H14.1613C13.8784 7.4883 13.6493 7.71711 13.6493 7.99998C13.6493 8.28285 13.8784 8.51194 14.1613 8.51194H14.9573C14.7067 11.9515 11.9514 14.7068 8.51194 14.9575Z" fill="#454545"/>
<path d="M8.51248 7.78795L8.5122 3.65649C8.5122 3.37362 8.28311 3.14453 8.00024 3.14453C7.71737 3.14453 7.48828 3.37362 7.48828 3.65649L7.48856 7.99982C7.48856 8.13573 7.54237 8.26579 7.63831 8.36203L10.3185 11.0422C10.4186 11.142 10.5495 11.192 10.6807 11.192C10.8116 11.192 10.9428 11.1423 11.0429 11.0422C11.2429 10.8422 11.2429 10.5183 11.0429 10.3181L8.51248 7.78795Z" fill="#454545"/>
</g>
<defs>
<clipPath id="clip0_528_933">
<rect width="16" height="16" fill="white"/>
</clipPath>
</defs>
</svg>
