<svg width="25" height="24" viewBox="0 0 25 24" fill="none" xmlns="http://www.w3.org/2000/svg">
<path d="M12.8902 17.7262C12.5551 17.7262 12.3318 17.6146 12.1084 17.3912L7.41804 12.7008C6.97133 12.2541 6.97133 11.5841 7.41804 11.1374C7.86474 10.6906 8.5348 10.6906 8.9815 11.1374L12.8902 15.046L21.6009 6.33527C22.0476 5.88857 22.7177 5.88857 23.1644 6.33527C23.6111 6.78198 23.6111 7.45203 23.1644 7.89874L13.6719 17.3912C13.5602 17.6146 13.2252 17.7262 12.8902 17.7262Z" fill="#888888"/>
<path d="M7.30716 17.726C6.97214 17.726 6.74878 17.6143 6.52543 17.391L1.83503 12.7006C1.38832 12.2539 1.38832 11.5838 1.83503 11.1371C2.28173 10.6904 2.95179 10.6904 3.3985 11.1371L8.0889 15.8275C8.5356 16.2742 8.5356 16.9443 8.0889 17.391C7.97722 17.6143 7.64219 17.726 7.30716 17.726ZM13.226 11.9188C12.891 11.9188 12.6676 11.8072 12.4443 11.5838C11.9976 11.1371 11.9976 10.467 12.4443 10.0203L16.0179 6.33503C16.4646 5.88832 17.1347 5.88832 17.5814 6.33503C18.0281 6.78173 18.0281 7.45179 17.5814 7.8985L14.0077 11.5838C13.7844 11.8072 13.561 11.9188 13.226 11.9188Z" fill="#888888"/>
</svg>
