<svg width="24" height="24" viewBox="0 0 24 24" fill="none" xmlns="http://www.w3.org/2000/svg">
<path d="M22.684 9.96866L3.13906 1.21102C1.45077 0.454503 -0.370559 1.96988 0.0655184 3.76729L1.07769 7.93921C1.22127 8.53086 1.60658 9.04367 2.13491 9.34611L6.05763 11.5921C6.37277 11.7726 6.37347 12.2271 6.05763 12.408L2.13495 14.654C1.60662 14.9564 1.22131 15.4693 1.07774 16.0609L0.0655184 20.2328C-0.369621 22.0261 1.44861 23.5464 3.13906 22.7891L22.6841 14.0314C24.4398 13.2447 24.4374 10.7543 22.684 9.96866ZM16.8406 12.8013L9.9257 15.8997C9.4832 16.0979 8.96378 15.9001 8.76545 15.4574C8.56713 15.0149 8.76517 14.4954 9.20767 14.2972L14.3344 12L9.20767 9.70288C8.76517 9.50455 8.56713 8.98508 8.76545 8.54263C8.96369 8.10013 9.48306 7.90204 9.9257 8.10036L16.8406 11.1988C17.531 11.5081 17.5315 12.4917 16.8406 12.8013Z" fill="#3BBE41"/>
</svg>
