<svg width="28" height="28" viewBox="0 0 28 28" fill="none" xmlns="http://www.w3.org/2000/svg">
<path d="M14 2.8103C6.4493 2.8103 0.328125 7.48226 0.328125 13.2458C0.328125 15.3425 1.13805 17.2926 2.53258 18.93C2.75007 19.1845 2.90308 19.4876 2.97866 19.8137C3.05424 20.1398 3.05017 20.4794 2.9668 20.8036L2.06883 24.2773C2.03711 24.4001 2.03798 24.5291 2.07136 24.6515C2.10475 24.7739 2.16949 24.8854 2.25918 24.9751C2.34887 25.0648 2.46042 25.1295 2.58279 25.1629C2.70517 25.1963 2.83414 25.1972 2.95695 25.1655L9.77813 23.4018C10.0749 23.3253 10.3848 23.3153 10.6859 23.3723C11.7786 23.5783 12.8881 23.6812 14 23.6796C21.5507 23.6796 27.6719 19.0076 27.6719 13.2441C27.6719 7.48061 21.5507 2.8103 14 2.8103ZM6.34375 15.3124C5.99222 15.3124 5.64859 15.2082 5.35631 15.0129C5.06403 14.8176 4.83622 14.54 4.7017 14.2152C4.56718 13.8905 4.53198 13.5331 4.60056 13.1883C4.66914 12.8436 4.83841 12.5269 5.08698 12.2783C5.33554 12.0297 5.65224 11.8605 5.99701 11.7919C6.34178 11.7233 6.69914 11.7585 7.02391 11.893C7.34868 12.0275 7.62626 12.2553 7.82156 12.5476C8.01685 12.8399 8.12109 13.1835 8.12109 13.5351C8.12109 13.7685 8.07512 13.9996 7.9858 14.2152C7.89648 14.4309 7.76556 14.6268 7.60052 14.7918C7.43548 14.9569 7.23955 15.0878 7.02391 15.1771C6.80827 15.2664 6.57715 15.3124 6.34375 15.3124ZM14 15.3124C13.6485 15.3124 13.3048 15.2082 13.0126 15.0129C12.7203 14.8176 12.4925 14.54 12.3579 14.2152C12.2234 13.8905 12.1882 13.5331 12.2568 13.1883C12.3254 12.8436 12.4947 12.5269 12.7432 12.2783C12.9918 12.0297 13.3085 11.8605 13.6533 11.7919C13.998 11.7233 14.3554 11.7585 14.6802 11.893C15.0049 12.0275 15.2825 12.2553 15.4778 12.5476C15.6731 12.8399 15.7773 13.1835 15.7773 13.5351C15.7773 13.7685 15.7314 13.9996 15.6421 14.2152C15.5527 14.4309 15.4218 14.6268 15.2568 14.7918C15.0917 14.9569 14.8958 15.0878 14.6802 15.1771C14.4645 15.2664 14.2334 15.3124 14 15.3124ZM21.6562 15.3124C21.3047 15.3124 20.9611 15.2082 20.6688 15.0129C20.3765 14.8176 20.1487 14.54 20.0142 14.2152C19.8797 13.8905 19.8445 13.5331 19.9131 13.1883C19.9816 12.8436 20.1509 12.5269 20.3995 12.2783C20.648 12.0297 20.9647 11.8605 21.3095 11.7919C21.6543 11.7233 22.0116 11.7585 22.3364 11.893C22.6612 12.0275 22.9388 12.2553 23.1341 12.5476C23.3294 12.8399 23.4336 13.1835 23.4336 13.5351C23.4336 13.7685 23.3876 13.9996 23.2983 14.2152C23.209 14.4309 23.0781 14.6268 22.913 14.7918C22.748 14.9569 22.552 15.0878 22.3364 15.1771C22.1208 15.2664 21.8897 15.3124 21.6562 15.3124Z" fill="#00B021"/>
</svg>
