<svg width="28" height="28" viewBox="0 0 28 28" fill="none" xmlns="http://www.w3.org/2000/svg">
<path d="M13.9997 3.5C6.91408 3.5 1.16992 7.8842 1.16992 13.2928C1.16992 15.2603 1.92996 17.0904 3.2386 18.6269C3.44269 18.8657 3.58628 19.1501 3.65721 19.4562C3.72813 19.7622 3.72431 20.0808 3.64608 20.385L2.80341 23.6448C2.77365 23.7601 2.77446 23.8811 2.80579 23.996C2.83712 24.1108 2.89787 24.2154 2.98204 24.2997C3.06621 24.3838 3.17088 24.4446 3.28572 24.4758C3.40056 24.5072 3.52158 24.508 3.63684 24.4783L10.0379 22.8233C10.3164 22.7515 10.6072 22.7421 10.8898 22.7955C11.9151 22.9888 12.9564 23.0854 13.9997 23.0839C21.0854 23.0839 26.8296 18.6997 26.8296 13.2911C26.8296 7.88266 21.0854 3.5 13.9997 3.5ZM6.81504 15.2321C6.48516 15.2321 6.16269 15.1342 5.88841 14.9509C5.61413 14.7678 5.40036 14.5073 5.27412 14.2025C5.14788 13.8977 5.11485 13.5624 5.17921 13.2389C5.24356 12.9152 5.40241 12.6181 5.63566 12.3849C5.86893 12.1515 6.16611 11.9928 6.48965 11.9284C6.81318 11.8641 7.14854 11.8971 7.4533 12.0233C7.75806 12.1496 8.01856 12.3633 8.20182 12.6376C8.38509 12.9118 8.4829 13.2343 8.4829 13.5642C8.4829 13.7832 8.43977 14.0001 8.35595 14.2025C8.27213 14.4048 8.14927 14.5887 7.9944 14.7435C7.83952 14.8984 7.65565 15.0213 7.4533 15.1051C7.25095 15.1889 7.03407 15.2321 6.81504 15.2321ZM13.9997 15.2321C13.6699 15.2321 13.3474 15.1342 13.0732 14.9509C12.7989 14.7678 12.585 14.5073 12.4588 14.2025C12.3326 13.8977 12.2995 13.5624 12.3639 13.2389C12.4282 12.9152 12.5871 12.6181 12.8203 12.3849C13.0537 12.1515 13.3508 11.9928 13.6743 11.9284C13.9979 11.8641 14.3333 11.8971 14.638 12.0233C14.9427 12.1496 15.2033 12.3633 15.3865 12.6376C15.5698 12.9118 15.6676 13.2343 15.6676 13.5642C15.6676 13.7832 15.6244 14.0001 15.5407 14.2025C15.4568 14.4048 15.3339 14.5887 15.1791 14.7435C15.0242 14.8984 14.8403 15.0213 14.638 15.1051C14.4356 15.1889 14.2187 15.2321 13.9997 15.2321ZM21.1844 15.2321C20.8546 15.2321 20.5321 15.1342 20.2578 14.9509C19.9836 14.7678 19.7697 14.5073 19.6435 14.2025C19.5172 13.8977 19.4842 13.5624 19.5486 13.2389C19.6129 12.9152 19.7718 12.6181 20.005 12.3849C20.2384 12.1515 20.5355 11.9928 20.859 11.9284C21.1825 11.8641 21.518 11.8971 21.8227 12.0233C22.1274 12.1496 22.3879 12.3633 22.5712 12.6376C22.7545 12.9118 22.8523 13.2343 22.8523 13.5642C22.8523 13.7832 22.8091 14.0001 22.7253 14.2025C22.6415 14.4048 22.5186 14.5887 22.3638 14.7435C22.2089 14.8984 22.025 15.0213 21.8227 15.1051C21.6203 15.1889 21.4034 15.2321 21.1844 15.2321Z" stroke="#5D5D5D" stroke-width="1.4"/>
</svg>
