<svg width="28" height="28" viewBox="0 0 28 28" fill="none" xmlns="http://www.w3.org/2000/svg">
<path d="M21.2521 14.8658C22.7701 13.9665 23.7902 12.3119 23.7902 10.4232C23.7902 7.57777 21.4753 5.26293 18.63 5.26293C18.3557 5.26293 18.0863 5.28466 17.8235 5.32608C16.8284 4.37597 15.4812 3.79175 14.0001 3.79175C12.519 3.79175 11.1718 4.37603 10.1767 5.32608C9.9139 5.28466 9.6446 5.26293 9.37028 5.26293C6.52487 5.26293 4.21003 7.57777 4.21003 10.4232C4.21003 12.3119 5.23013 13.9664 6.74812 14.8658C2.96275 15.9968 0.195312 19.5102 0.195312 23.6584C0.195312 23.9622 0.441534 24.2084 0.745294 24.2084H27.2549C27.5587 24.2084 27.8049 23.9622 27.8049 23.6584C27.8049 19.5102 25.0375 15.9968 21.2521 14.8658ZM18.6764 6.36408C20.8938 6.38916 22.6902 8.1999 22.6902 10.4231C22.6902 12.662 20.8688 14.4834 18.63 14.4834C17.9954 14.4834 17.3945 14.3368 16.859 14.0762C18.4648 13.1049 19.5405 11.3418 19.5405 9.33211C19.5405 8.24094 19.2232 7.22262 18.6764 6.36408ZM10.5518 6.5388C10.8107 6.21988 11.113 5.9378 11.4494 5.70086C12.1717 5.19191 13.0513 4.89177 14.0001 4.89177C14.949 4.89177 15.8285 5.19191 16.5509 5.7008C16.8873 5.9378 17.1896 6.21978 17.4485 6.53874C18.0681 7.30232 18.4404 8.27437 18.4404 9.33206C18.4404 11.1236 17.3733 12.6696 15.8419 13.3708C15.4737 13.5394 15.0791 13.66 14.6653 13.7224C14.4482 13.7552 14.2262 13.7724 14.0001 13.7724C13.7741 13.7724 13.552 13.7552 13.3349 13.7224C12.9212 13.66 12.5266 13.5394 12.1583 13.3708C10.6268 12.6696 9.55977 11.1236 9.55977 9.33211C9.55977 8.27437 9.93207 7.30232 10.5518 6.5388ZM5.3101 10.4231C5.3101 8.19985 7.10651 6.38916 9.3239 6.36403C8.7771 7.22257 8.45986 8.24089 8.45986 9.33201C8.45986 11.3417 9.53561 13.1048 11.1413 14.0761C10.6058 14.3368 10.0049 14.4834 9.37039 14.4834C7.13147 14.4834 5.3101 12.662 5.3101 10.4231ZM1.31383 23.1085C1.57062 19.3081 4.46866 16.2205 8.18247 15.6707C5.85706 17.3689 4.29788 20.0562 4.12963 23.1085H1.31383ZM5.2311 23.1085C5.43747 19.7853 7.49978 16.9569 10.391 15.6488C11.0367 15.3567 11.7236 15.1405 12.4404 15.0116C12.9468 14.9204 13.4679 14.8724 14.0002 14.8724C14.5324 14.8724 15.0535 14.9204 15.5599 15.0116C16.2768 15.1405 16.9637 15.3568 17.6093 15.6488C20.5006 16.9569 22.5629 19.7853 22.7693 23.1085H5.2311ZM23.8706 23.1085C23.7024 20.0562 22.1432 17.3689 19.8178 15.6707C23.5316 16.2205 26.4296 19.3081 26.6864 23.1085H23.8706Z" fill="#5D5D5D" stroke="#5D5D5D" stroke-width="0.1"/>
<path d="M7.82839 18.8525C7.0407 19.9978 7.03134 21.169 7.16366 21.1667C7.30847 21.1922 7.5315 20.1664 8.24512 19.1313C8.93848 18.0883 9.81363 17.5105 9.74034 17.3813C9.69396 17.2628 8.60247 17.7019 7.82839 18.8525Z" fill="#5D5D5D" stroke="#5D5D5D" stroke-width="0.4"/>
<path d="M15.5474 7.35125C16.1138 7.84343 16.5353 8.34746 16.7997 8.24666C17.0441 8.17015 16.9593 7.29504 16.2033 6.61961C15.4472 5.94423 14.5761 5.94427 14.5208 6.2039C14.4484 6.47419 14.9974 6.84833 15.5474 7.35125Z" fill="#5D5D5D" stroke="#5D5D5D" stroke-width="0.15"/>
</svg>
