<svg width="28" height="28" viewBox="0 0 28 28" fill="none" xmlns="http://www.w3.org/2000/svg">
<g clip-path="url(#clip0_451_1156)">
<mask id="mask0_451_1156" style="mask-type:luminance" maskUnits="userSpaceOnUse" x="0" y="0" width="28" height="28">
<path d="M0.5 0.5H27.5V27.5H0.5V0.5Z" fill="white" stroke="white"/>
</mask>
<g mask="url(#mask0_451_1156)">
<path d="M10.1626 6.2237L10.1626 6.22366C10.4506 5.86893 10.7866 5.5554 11.1604 5.29212L10.1626 6.2237ZM10.1626 6.2237C9.47359 7.07259 9.05879 8.15492 9.05879 9.33212C9.05879 11.3271 10.2472 13.0462 11.9492 13.8254C12.3583 14.0127 12.7978 14.1472 13.2593 14.2168L10.1626 6.2237ZM16.8379 5.29204L16.838 5.29208C17.2116 5.55537 17.5477 5.86879 17.8357 6.22365L17.8357 6.22369C18.5246 7.07258 18.9395 8.15488 18.9395 9.33206C18.9395 11.3271 17.751 13.0462 16.0491 13.8254L16.0491 13.8254C15.6399 14.0127 15.2005 14.1472 14.739 14.2168C14.739 14.2168 14.739 14.2168 14.739 14.2168L14.6644 13.7224C14.4473 13.7552 14.2251 13.7725 13.9992 13.7725L16.8379 5.29204ZM16.8379 5.29204C16.0346 4.72617 15.0552 4.39176 13.9992 4.39176C12.9432 4.39176 11.9637 4.72616 11.1604 5.29209L16.8379 5.29204ZM10.2408 5.85359L9.74466 6.63263C9.24726 7.41358 8.95888 8.33917 8.95888 9.332C8.95888 11.159 9.93639 12.7634 11.3992 13.6483L12.1851 14.1238L11.3592 14.5257C10.7573 14.8187 10.0817 14.9833 9.36943 14.9833L10.2408 5.85359ZM10.2408 5.85359L9.31726 5.86406M10.2408 5.85359L9.31726 5.86406M9.31726 5.86406C6.82647 5.89229 4.80913 7.92539 4.80913 10.4231M9.31726 5.86406L4.80913 10.4231M4.69811 23.6085L4.73108 23.0775C4.94932 19.5633 7.12974 16.5751 10.1839 15.1933C10.8666 14.8844 11.593 14.6558 12.3509 14.5195M4.69811 23.6085L12.4394 15.0116M4.69811 23.6085H5.23012H22.7683H23.3003L23.2673 23.0775C23.0491 19.5633 20.8687 16.5751 17.8145 15.1933L17.8144 15.1932C17.1319 14.8845 16.4056 14.6558 15.6474 14.5195M4.69811 23.6085L15.5589 15.0116M12.3509 14.5195L12.4394 15.0116M12.3509 14.5195C12.3509 14.5195 12.3509 14.5195 12.3509 14.5195L12.4394 15.0116M12.3509 14.5195C12.886 14.4232 13.4368 14.3724 13.9992 14.3724C14.5615 14.3724 15.1123 14.4232 15.6474 14.5195M12.4394 15.0116C12.9458 14.9205 13.4669 14.8724 13.9992 14.8724C14.5314 14.8724 15.0525 14.9205 15.5589 15.0116M15.6474 14.5195L15.5589 15.0116M15.6474 14.5195C15.6474 14.5195 15.6474 14.5195 15.6474 14.5195L15.5589 15.0116M5.23012 23.1085C5.24055 22.9405 5.25573 22.7738 5.27551 22.6085H5.23012V23.1085ZM5.23012 23.1085L5.72916 23.1395C5.7298 23.1291 5.73046 23.1188 5.73114 23.1085H5.23012ZM22.7683 23.1085L22.2693 23.1395C22.2686 23.1291 22.268 23.1188 22.2673 23.1085H22.7683ZM22.7683 23.1085V22.6085H22.7229C22.7427 22.7738 22.7579 22.9405 22.7683 23.1085ZM4.80913 10.4231C4.80913 12.9382 6.85433 14.9834 9.36941 14.9833L4.80913 10.4231ZM20.9962 14.4357L20.0134 15.018L21.1079 15.3449C24.688 16.4144 27.304 19.7378 27.304 23.6585C27.304 23.686 27.2816 23.7084 27.254 23.7084H0.744318C0.716657 23.7084 0.694336 23.6861 0.694336 23.6585C0.694336 19.7378 3.31029 16.4144 6.89027 15.3449L7.98478 15.018L7.00202 14.4357C5.62912 13.6223 4.70906 12.1274 4.70906 10.4232C4.70906 7.85391 6.80004 5.76293 9.3693 5.76293C9.61716 5.76293 9.86044 5.78256 10.0979 5.81998L10.3422 5.85847L10.521 5.68772C11.4272 4.8226 12.6522 4.29175 13.9992 4.29175C15.3461 4.29175 16.5712 4.82255 17.4773 5.6877L17.6561 5.85847L17.9004 5.81998C18.1379 5.78256 18.3811 5.76293 18.629 5.76293C21.1982 5.76293 23.2891 7.8539 23.2891 10.4232C23.2891 12.1274 22.3691 13.6223 20.9962 14.4357ZM18.6812 5.86412L17.7577 5.85368L18.2538 6.63265C18.7511 7.41365 19.0395 8.33924 19.0395 9.33212C19.0395 11.159 18.062 12.7636 16.5993 13.6483L15.8135 14.1236L16.6392 14.5257C17.2411 14.8188 17.9166 14.9834 18.629 14.9834C21.1439 14.9834 23.1892 12.9382 23.1892 10.4231C23.1892 7.92546 21.1718 5.89228 18.6812 5.86412ZM0.813989 23.0748L0.777927 23.6085H1.31285H4.12865H4.60185L4.62789 23.136C4.78754 20.2396 6.26691 17.6881 8.47639 16.0744L8.10827 15.176C4.16387 15.76 1.08676 19.0378 0.813989 23.0748ZM23.3704 23.136L23.3964 23.6085H23.8696H26.6855H27.2204L27.1844 23.0748C26.9115 19.0377 23.8344 15.76 19.89 15.176L19.5219 16.0744C21.7314 17.6881 23.2107 20.2396 23.3704 23.136Z" stroke="white"/>
<path d="M19.6899 9.33205C19.6899 8.31274 19.4202 7.3551 18.9489 6.52669C20.9558 6.68979 22.5395 8.37479 22.5395 10.4231C22.5395 12.5791 20.7853 14.3334 18.6293 14.3334C18.115 14.3334 17.624 14.2335 17.1741 14.0523C18.6901 13.0294 19.6899 11.2955 19.6899 9.33205Z" fill="#00B021" stroke="#00B021" stroke-width="0.3"/>
<path d="M5.23047 23.1084C5.43684 19.7853 7.49916 16.9568 10.3904 15.6487C11.036 15.3566 11.723 15.1404 12.4398 15.0115C12.9461 14.9204 13.4673 14.8723 13.9995 14.8723C14.5317 14.8723 15.0529 14.9204 15.5592 15.0115C16.2763 15.1404 16.9631 15.3567 17.6087 15.6487C20.4999 16.9568 22.5623 19.7853 22.7686 23.1084H5.23047Z" fill="#00B021"/>
<path d="M23.8693 23.1085C23.7011 20.0562 22.1419 17.369 19.8164 15.6707C23.5303 16.2205 26.4283 19.3081 26.6852 23.1085H23.8693Z" fill="#00B021"/>
<path d="M1.3125 23.1085C1.56928 19.3082 4.46733 16.2205 8.18114 15.6707C5.85573 17.369 4.29654 20.0562 4.1283 23.1085H1.3125Z" fill="#00B021"/>
<path d="M5.30957 10.4231C5.30957 8.19983 7.10597 6.38914 9.32337 6.36401C8.77657 7.22255 8.45933 8.24088 8.45933 9.33199C8.45933 11.3417 9.53509 13.1048 11.1408 14.0761C10.6053 14.3368 10.0044 14.4833 9.36985 14.4833C7.13094 14.4834 5.30957 12.662 5.30957 10.4231Z" fill="#00B021"/>
<path d="M10.5506 6.53888C10.8095 6.21997 11.1118 5.93789 11.4482 5.70094C12.1706 5.19199 13.0501 4.89185 13.999 4.89185C14.9478 4.89185 15.8274 5.19199 16.5498 5.70088C16.8861 5.93789 17.1884 6.21986 17.4473 6.53883C18.0669 7.3024 18.4393 8.27446 18.4393 9.33214C18.4393 11.1237 17.3721 12.6697 15.8408 13.3709C15.4725 13.5394 15.0779 13.6601 14.6642 13.7225C14.4471 13.7553 14.2249 13.7725 13.999 13.7725C13.7729 13.7725 13.5508 13.7553 13.3337 13.7225C12.92 13.6601 12.5253 13.5394 12.1571 13.3709C10.6257 12.6697 9.55859 11.1237 9.55859 9.3322C9.55859 8.27446 9.9309 7.3024 10.5506 6.53888Z" fill="#00B021"/>
<path d="M21.251 14.8659C22.7691 13.9665 23.7891 12.3118 23.7891 10.4232C23.7891 7.57777 21.4743 5.26293 18.629 5.26293C18.3547 5.26293 18.0854 5.28466 17.8226 5.32608C16.8275 4.37597 15.4802 3.79175 13.9992 3.79175C12.5181 3.79175 11.1708 4.37603 10.1758 5.32608C9.91292 5.28466 9.64362 5.26293 9.3693 5.26293C6.5239 5.26293 4.20906 7.57777 4.20906 10.4232C4.20906 12.3118 5.22915 13.9665 6.74715 14.8659C2.96177 15.9967 0.194336 19.5103 0.194336 23.6585C0.194336 23.9623 0.440557 24.2084 0.744318 24.2084H27.254C27.5577 24.2084 27.804 23.9623 27.804 23.6585C27.804 19.5103 25.0365 15.9967 21.251 14.8659ZM18.6755 6.36409C20.8928 6.38916 22.6892 8.19991 22.6892 10.4231C22.6892 12.662 20.8678 14.4834 18.629 14.4834C17.9944 14.4834 17.3936 14.3369 16.8581 14.0761C18.4638 13.1049 19.5395 11.3418 19.5395 9.33212C19.5395 8.24094 19.2222 7.22262 18.6755 6.36409ZM10.5508 6.53879C10.8097 6.21988 11.112 5.93781 11.4484 5.70086C12.1708 5.19191 13.0503 4.89176 13.9992 4.89176C14.948 4.89176 15.8276 5.19191 16.55 5.7008C16.8863 5.93781 17.1886 6.21978 17.4475 6.53875C18.0671 7.30232 18.4395 8.27437 18.4395 9.33206C18.4395 11.1236 17.3723 12.6696 15.841 13.3708C15.4727 13.5394 15.0781 13.66 14.6644 13.7224C14.4473 13.7552 14.2251 13.7725 13.9992 13.7725C13.7731 13.7725 13.551 13.7552 13.3339 13.7224C12.9202 13.66 12.5255 13.5394 12.1573 13.3708C10.6259 12.6696 9.55879 11.1236 9.55879 9.33212C9.55879 8.27437 9.9311 7.30232 10.5508 6.53879ZM5.30913 10.4231C5.30913 8.19985 7.10553 6.38916 9.32293 6.36403C8.77612 7.22257 8.45888 8.24089 8.45888 9.332C8.45888 11.3417 9.53464 13.1048 11.1404 14.0761C10.6048 14.3368 10.0039 14.4833 9.36941 14.4833C7.13049 14.4834 5.30913 12.662 5.30913 10.4231ZM1.31285 23.1085C1.56964 19.3082 4.46768 16.2205 8.1815 15.6706C5.85609 17.3689 4.29689 20.0561 4.12865 23.1085H1.31285ZM5.23012 23.1085C5.43649 19.7853 7.49881 16.9569 10.3901 15.6488C11.0357 15.3567 11.7226 15.1405 12.4394 15.0116C12.9458 14.9205 13.4669 14.8724 13.9992 14.8724C14.5314 14.8724 15.0525 14.9205 15.5589 15.0116C16.2759 15.1405 16.9627 15.3568 17.6084 15.6488C20.4996 16.9569 22.5619 19.7853 22.7683 23.1085H5.23012ZM23.8696 23.1085C23.7014 20.0561 22.1423 17.3689 19.8167 15.6706C23.5306 16.2205 26.4286 19.3081 26.6855 23.1085H23.8696Z" fill="white"/>
<path d="M18.6758 6.36401C20.8931 6.38909 22.6895 8.19983 22.6895 10.4231C22.6895 12.662 20.8681 14.4834 18.6293 14.4834C17.9947 14.4834 17.3939 14.3368 16.8584 14.0761C18.4641 13.1048 19.5399 11.3417 19.5399 9.33205C19.5399 8.24087 19.2225 7.22255 18.6758 6.36401Z" stroke="white" stroke-width="0.3"/>
<path d="M5.23047 23.1086C5.43684 19.7855 7.49916 16.957 10.3904 15.649C11.036 15.3568 11.723 15.1407 12.4398 15.0117C12.9461 14.9206 13.4673 14.8726 13.9995 14.8726C14.5317 14.8726 15.0529 14.9206 15.5592 15.0117C16.2763 15.1407 16.9631 15.357 17.6087 15.649C20.4999 16.957 22.5623 19.7855 22.7686 23.1086H5.23047Z" stroke="white" stroke-width="0.3"/>
<path d="M23.8693 23.1085C23.7011 20.0562 22.1419 17.369 19.8164 15.6707C23.5303 16.2205 26.4283 19.3081 26.6852 23.1085H23.8693Z" stroke="white" stroke-width="0.3"/>
<path d="M1.3125 23.1085C1.56928 19.3082 4.46733 16.2205 8.18114 15.6707C5.85573 17.369 4.29654 20.0562 4.1283 23.1085H1.3125Z" stroke="white" stroke-width="0.3"/>
<path d="M5.30957 10.4231C5.30957 8.19983 7.10597 6.38914 9.32337 6.36401C8.77657 7.22255 8.45933 8.24088 8.45933 9.33199C8.45933 11.3417 9.53509 13.1048 11.1408 14.0761C10.6053 14.3368 10.0044 14.4833 9.36985 14.4833C7.13094 14.4834 5.30957 12.662 5.30957 10.4231Z" stroke="white" stroke-width="0.3"/>
<path d="M10.5506 6.53888C10.8095 6.21997 11.1118 5.93789 11.4482 5.70094C12.1706 5.19199 13.0501 4.89185 13.999 4.89185C14.9478 4.89185 15.8274 5.19199 16.5498 5.70088C16.8861 5.93789 17.1884 6.21986 17.4473 6.53883C18.0669 7.3024 18.4393 8.27446 18.4393 9.33214C18.4393 11.1237 17.3721 12.6697 15.8408 13.3709C15.4725 13.5394 15.0779 13.6601 14.6642 13.7225C14.4471 13.7553 14.2249 13.7725 13.999 13.7725C13.7729 13.7725 13.5508 13.7553 13.3337 13.7225C12.92 13.6601 12.5253 13.5394 12.1571 13.3709C10.6257 12.6697 9.55859 11.1237 9.55859 9.3322C9.55859 8.27446 9.9309 7.3024 10.5506 6.53888Z" stroke="white" stroke-width="0.3"/>
<path d="M7.82724 18.8524C7.03955 19.9976 7.03018 21.169 7.16251 21.1666C7.30731 21.1921 7.53036 20.1662 8.24397 19.1311C8.93732 18.0881 9.81248 17.5104 9.73919 17.3813C9.69281 17.2627 8.60132 17.7019 7.82724 18.8524Z" fill="white" stroke="white" stroke-width="0.45"/>
<path d="M15.5468 7.35103C16.1132 7.84321 16.5347 8.34724 16.7991 8.24645C17.0434 8.16994 16.9587 7.29483 16.2026 6.61939C15.4466 5.94402 14.5755 5.94405 14.5201 6.20368C14.4478 6.47398 14.9968 6.84812 15.5468 7.35103Z" fill="white" stroke="white" stroke-width="0.15"/>
</g>
</g>
<defs>
<clipPath id="clip0_451_1156">
<rect width="28" height="28" fill="white"/>
</clipPath>
</defs>
</svg>
