<svg width="28" height="28" viewBox="0 0 28 28" fill="none" xmlns="http://www.w3.org/2000/svg">
<g clip-path="url(#clip0_451_447)">
<mask id="mask0_451_447" style="mask-type:luminance" maskUnits="userSpaceOnUse" x="0" y="0" width="28" height="28">
<path d="M28 0H0V28H28V0Z" fill="white"/>
</mask>
<g mask="url(#mask0_451_447)">
<path d="M13.638 6.69666C13.8927 6.78528 14.1585 6.82957 14.4207 6.82957C14.7825 6.82957 15.1406 6.74466 15.4582 6.57852C16.2961 6.13917 16.7392 5.28263 16.6138 4.35224C16.4808 3.37018 15.7793 2.59855 14.8231 2.3918C13.9555 2.19981 13.0804 2.4878 12.5451 3.14126C12.0209 3.77998 11.9138 4.64391 12.2683 5.45245C12.5229 6.02471 13.0178 6.48252 13.638 6.69666ZM12.966 3.48094C13.2873 3.08958 13.7746 2.87177 14.2951 2.87177C14.4317 2.87177 14.5721 2.88651 14.7087 2.91606C15.4397 3.0748 15.9785 3.66922 16.0783 4.42239C16.1744 5.13494 15.8496 5.76258 15.207 6.09855C14.7898 6.31639 14.2841 6.3496 13.8152 6.18348C13.3389 6.01735 12.9586 5.6666 12.7629 5.22725C12.4971 4.61806 12.5711 3.96091 12.966 3.48094Z" fill="#5D5D5D" stroke="#5D5D5D" stroke-width="0.6"/>
<path d="M12.8273 10.1699C12.6647 10.8642 12.8789 11.4256 12.9417 11.3998C13.0156 11.3849 12.9307 10.8531 13.0784 10.2253C13.215 9.59747 13.5253 9.15799 13.4662 9.10997C13.4219 9.06197 12.9823 9.4756 12.8273 10.1699Z" stroke="#5D5D5D" stroke-width="0.5"/>
<path d="M14.7486 4.0591C14.9222 4.15514 15.0589 4.26222 15.1217 4.22159C15.1807 4.18835 15.1105 3.96677 14.8779 3.83381C14.6452 3.70086 14.42 3.74887 14.42 3.81904C14.4162 3.89291 14.5787 3.95938 14.7486 4.0591Z" stroke="#5D5D5D" stroke-width="0.4"/>
<path d="M19.1479 21.4163C19.1553 20.9438 19.1664 20.4601 19.1996 19.9843C19.2993 18.6331 19.0112 17.5515 18.3395 16.7689C18.1289 16.5253 17.9187 16.3075 17.7119 16.0971L17.7066 16.0917C17.1737 15.5441 16.7144 15.0721 16.4347 14.2921C16.1321 13.443 16.1689 12.6199 16.2095 11.7451M19.1479 21.4163L19.1476 21.4343M19.1479 21.4163C19.1478 21.4223 19.1477 21.4283 19.1476 21.4343M16.2095 11.7451C16.2095 11.7303 16.2095 11.7191 16.2095 11.7045M16.2095 11.7451V11.7045M16.2095 11.7045C16.7042 12.1142 17.3871 12.439 17.5052 12.4796C18.5462 12.8561 20.0855 12.8524 21.3147 12.8119C21.85 12.7934 22.5254 12.4833 22.7138 11.9443C22.7912 11.723 22.8429 11.2873 22.3149 10.8259C21.8537 10.4272 20.9974 10.4088 20.2257 10.442L19.9563 10.4568C19.373 10.49 18.8193 10.5195 18.347 10.2574C17.937 10.0289 17.6981 9.71134 17.4239 9.34666M17.4092 9.32723C17.3206 9.20909 17.2285 9.08727 17.1324 8.96547C16.6046 8.31211 15.8331 7.7658 15.0726 7.5074C14.3787 7.27114 13.515 7.42989 12.8099 7.83222C12.8062 7.83222 12.8024 7.83222 12.8024 7.83592L12.4075 8.0205C11.3444 8.51143 9.88632 9.18696 9.17388 10.0286C8.30643 11.0474 8.01112 12.4059 7.75272 13.6054C7.73795 13.6794 7.71581 13.7605 7.69734 13.8418C7.57924 14.3143 7.43158 14.9049 7.71212 15.3626C7.98529 15.8091 8.3175 15.8941 8.53898 15.8941C8.57221 15.8941 8.60543 15.8904 8.63495 15.8904C9.17758 15.8276 9.64639 15.2592 9.8125 14.7535C9.9306 14.3917 9.97861 14.0115 10.0229 13.6424L10.0235 13.6373C10.0824 13.1593 10.138 12.7072 10.3404 12.3282C10.5117 12.0002 10.8847 11.7765 11.2496 11.5576M17.4092 9.32723L17.4239 9.34666M17.4092 9.32723C17.4141 9.33372 17.419 9.3402 17.4239 9.34666M11.2633 11.5494L11.2496 11.5576M11.2633 11.5494L11.2665 11.5476C11.2912 11.5334 11.316 11.5192 11.3407 11.5015V11.5199C11.422 12.225 11.5364 12.9373 11.6582 13.6904L11.6585 13.6923C12.0866 16.3495 12.529 19.0951 11.3297 21.3868C11.1723 21.6871 10.866 22.0416 10.5406 22.4182M11.2633 11.5494C11.2587 11.5521 11.2542 11.5549 11.2496 11.5576M10.5323 22.4278C10.3994 22.5791 10.2628 22.7378 10.13 22.9004L3.18285 22.9888C3.0352 22.9888 2.91338 23.1144 2.91707 23.2621C2.91707 23.4095 3.03888 23.5278 3.18655 23.5278H3.19025L9.71281 23.4428C9.20711 24.1812 8.91918 24.9822 9.48396 25.7612C9.75344 26.1376 10.0894 26.326 10.4843 26.326H10.5028C11.5917 26.3075 12.7508 24.7865 13.5296 23.6422C13.5739 23.5758 13.633 23.4908 13.6922 23.395L16.1689 23.3656C16.1506 23.6607 16.1284 23.9523 16.1136 24.2475C16.0878 24.7015 16.1173 25.5321 16.6119 25.9714C16.793 26.1303 17.1139 26.3001 17.6161 26.2114C18.7271 26.012 18.9596 24.1111 19.0445 23.395C19.0482 23.3729 19.0482 23.3544 19.0518 23.3322L24.8179 23.2546C24.9653 23.2546 25.0872 23.129 25.0836 22.9813C25.0799 22.8302 24.9617 22.712 24.8104 22.712L19.0998 22.7896C19.1327 22.3342 19.1403 21.879 19.1476 21.4343M10.5323 22.4278L10.5406 22.4182M10.5323 22.4278C10.5351 22.4246 10.5378 22.4214 10.5406 22.4182M9.48396 13.5723L9.48123 13.5944M9.48396 13.5723L9.48574 13.5578M9.48396 13.5723C9.48305 13.5796 9.48214 13.587 9.48123 13.5944M9.48396 13.5723C9.48455 13.5674 9.48515 13.5626 9.48574 13.5578M8.21784 13.9708C8.23999 13.8824 8.26212 13.7975 8.2806 13.7162C8.53898 12.5239 8.80845 11.2911 9.58731 10.3756C10.0414 9.84032 10.883 9.36044 11.6988 8.95439C11.6766 9.00238 11.6508 9.05036 11.6287 9.09837C11.4145 9.62621 11.3076 10.239 11.3076 10.8776C11.2005 10.9477 11.0934 11.0142 10.9826 11.0806C10.5692 11.3242 10.1041 11.6047 9.85679 12.0699C9.6118 12.5342 9.54791 13.053 9.48574 13.5578M8.21784 13.9708L8.213 13.9906M8.21784 13.9708C8.21623 13.9774 8.21462 13.984 8.213 13.9906M14.8622 18.3193C14.9065 19.2014 14.9472 20.1132 14.781 20.9326C14.6482 21.6084 14.3159 22.3096 14.0133 22.8524L16.1985 22.8264M14.8622 18.3193C14.8608 18.2886 14.8593 18.258 14.8579 18.2275M14.8622 18.3193L14.8579 18.2275M15.1206 17.7952C15.01 17.7397 14.9177 17.6881 14.8328 17.6438C14.8391 17.8328 14.8484 18.0273 14.8579 18.2275M15.1206 17.7952L15.137 17.8038M15.1206 17.7952C15.126 17.798 15.1315 17.8009 15.137 17.8038M16.1985 22.8264C16.2028 22.759 16.2072 22.6914 16.2115 22.6237M16.1985 22.8264L16.2115 22.6237M10.4917 25.7722C11.1119 25.7648 11.9829 24.9417 13.0794 23.3286C13.6737 22.45 14.1129 21.5123 14.2531 20.8147C14.4009 20.0652 14.3602 19.1869 14.3196 18.3378C14.2974 17.9208 14.279 17.5219 14.2828 17.1379C14.2828 16.9869 14.4045 16.8686 14.5521 16.8686C14.6407 16.8686 14.722 16.9166 14.77 16.983C14.8618 17.0494 15.1513 17.1994 15.365 17.3102L15.3679 17.3117C15.9587 17.6216 16.3241 17.8173 16.4569 17.9796C16.9995 18.6441 16.9367 19.5081 16.8813 20.2684C16.8703 20.4308 16.8554 20.5895 16.8518 20.7409C16.8261 21.5308 16.7745 22.3281 16.7227 23.0996C16.6969 23.4908 16.6711 23.8857 16.6489 24.2771C16.6119 24.8751 16.7339 25.3588 16.9662 25.5653C17.0993 25.6835 17.28 25.7205 17.5163 25.6762C17.9925 25.5913 18.3247 24.8013 18.5057 23.3286C18.5828 22.6949 18.5941 22.0432 18.6051 21.4094L18.6051 21.4052C18.6163 20.9253 18.6236 20.4308 18.6606 19.9436C18.7529 18.7402 18.5057 17.7915 17.9334 17.1048C17.7304 16.8723 17.5273 16.6621 17.328 16.4589C16.7745 15.8904 16.2502 15.3514 15.929 14.4582C15.5858 13.5095 15.6264 12.6347 15.6707 11.7045L15.6708 11.7027M10.4917 25.7722C10.488 25.7722 10.4843 25.7722 10.4806 25.7722M10.4917 25.7722H10.4806M10.4806 25.7722C10.2665 25.7722 10.082 25.6614 9.91586 25.4325C9.36954 24.6794 9.99338 23.8526 10.931 22.7636C11.2816 22.3614 11.6102 21.9775 11.7984 21.6194C13.0831 19.1685 12.6254 16.3296 12.1823 13.5871C12.0606 12.8414 11.9498 12.1364 11.8685 11.4423C11.8539 11.3021 11.8427 11.1618 11.839 11.0178C11.8206 10.394 11.9203 9.79601 12.1232 9.29031C12.2819 8.89903 12.6142 8.55943 13.0203 8.31581L13.0276 8.31211C13.0314 8.31211 13.0314 8.30841 13.0351 8.30472C13.6109 7.96142 14.3308 7.81379 14.8917 8.00573C15.56 8.2346 16.2392 8.71445 16.708 9.29399C16.8021 9.40982 16.8854 9.52209 16.9687 9.63429L16.9737 9.64098C17.2763 10.047 17.5643 10.4309 18.0775 10.7188C18.6864 11.0585 19.373 11.0215 19.9821 10.9883L20.2441 10.9735M20.2441 10.9735L20.2606 10.9729M20.2441 10.9735C20.2494 10.9733 20.255 10.9731 20.2606 10.9729M15.6749 11.6058C15.6735 11.6382 15.6722 11.6705 15.6708 11.7027M15.6749 11.6058C15.6844 11.3793 15.6933 11.1498 15.6965 10.9145C15.6965 10.7668 15.8183 10.6487 15.966 10.6487H15.9697C16.1173 10.6487 16.2355 10.7742 16.2355 10.9219C16.2723 11.1581 17.247 11.8004 17.6897 11.9592C18.6533 12.3098 20.2073 12.2951 21.2926 12.2581C21.6913 12.2433 22.1084 12.0108 22.2006 11.7525C22.2561 11.5901 22.1748 11.4128 21.9569 11.2246C21.6041 10.919 20.6421 10.9576 20.2606 10.9729M15.6749 11.6058L15.6708 11.7027M8.213 13.9906C8.12152 14.3636 8.01025 14.8172 8.16985 15.0783C8.35073 15.3773 8.51684 15.3589 8.56852 15.3514C8.83429 15.3183 9.1665 14.9675 9.2957 14.5799C9.39694 14.2764 9.43797 13.9444 9.48123 13.5944M15.137 17.8038C15.176 17.8242 15.2181 17.8462 15.262 17.8692M15.137 17.8038L15.262 17.8692M15.262 17.8692C15.5692 18.0306 15.9669 18.2442 16.0396 18.3268C16.4457 18.8212 16.3942 19.5375 16.3426 20.2314C16.3396 20.2774 16.3363 20.323 16.333 20.3684C16.3242 20.4906 16.3156 20.6103 16.313 20.7261C16.293 21.3559 16.2519 21.9948 16.2115 22.6237" stroke="#5D5D5D" stroke-width="0.6"/>
</g>
</g>
<defs>
<clipPath id="clip0_451_447">
<rect width="28" height="28" fill="white"/>
</clipPath>
</defs>
</svg>
