<svg width="28" height="28" viewBox="0 0 28 28" fill="none" xmlns="http://www.w3.org/2000/svg">
<g clip-path="url(#clip0_451_657)">
<path d="M13.9999 27.9999C21.7318 27.9999 27.9999 21.7318 27.9999 13.9999C27.9999 6.26797 21.7318 0 13.9999 0C6.26797 0 0 6.26797 0 13.9999C0 21.7318 6.26797 27.9999 13.9999 27.9999Z" fill="#00B021"/>
<path d="M13.6772 7.30701C13.905 7.38433 14.1429 7.42297 14.3774 7.42297C14.7011 7.42297 15.0215 7.34889 15.3057 7.20393C16.0555 6.82061 16.4519 6.07329 16.3397 5.26153C16.2207 4.4047 15.593 3.73147 14.7375 3.55108C13.9612 3.38357 13.1782 3.63484 12.6993 4.20498C12.2303 4.76225 12.1344 5.51602 12.4516 6.22146C12.6794 6.72075 13.1222 7.12017 13.6772 7.30701ZM13.0758 4.50134C13.3633 4.15988 13.7994 3.96985 14.2651 3.96985C14.3873 3.96985 14.5129 3.98271 14.6351 4.00849C15.2892 4.14699 15.7713 4.66561 15.8605 5.32274C15.9465 5.94443 15.6559 6.49204 15.081 6.78516C14.7077 6.97523 14.2552 7.00421 13.8357 6.85926C13.4095 6.71432 13.0693 6.40829 12.8942 6.02497C12.6563 5.49346 12.7225 4.92011 13.0758 4.50134Z" fill="white" stroke="white" stroke-width="0.4"/>
<path d="M12.9343 10.2606C12.7888 10.8663 12.9805 11.3562 13.0366 11.3336C13.1028 11.3207 13.0268 10.8567 13.159 10.3089C13.2812 9.76114 13.5588 9.3777 13.5059 9.33581C13.4663 9.29393 13.073 9.65481 12.9343 10.2606Z" fill="white" stroke="white" stroke-width="0.3"/>
<path d="M14.6701 4.93567C14.8253 5.01946 14.9477 5.11288 15.0039 5.07744C15.0566 5.04844 14.9939 4.85512 14.7857 4.73911C14.5775 4.62311 14.376 4.665 14.376 4.72622C14.3726 4.79067 14.5181 4.84867 14.6701 4.93567Z" fill="white" stroke="white" stroke-width="0.3"/>
<path d="M23.6719 21.2806L18.5624 21.3483C18.5922 20.9456 18.5987 20.5431 18.6054 20.1501C18.612 19.7379 18.622 19.3158 18.6516 18.9007C18.7409 17.7218 18.4831 16.7781 17.8821 16.0953C17.6937 15.8828 17.5056 15.6927 17.3205 15.5092C16.8417 15.0294 16.4289 14.6171 16.1778 13.9344C15.907 13.1935 15.94 12.4754 15.9763 11.7122C15.9763 11.6992 15.9763 11.6895 15.9763 11.6767C16.4189 12.0342 17.0299 12.3176 17.1356 12.353C18.067 12.6814 19.4443 12.6782 20.5441 12.6429C21.0231 12.6268 21.6274 12.3562 21.7959 11.886C21.8652 11.6928 21.9114 11.3127 21.439 10.9101C21.0264 10.5623 20.2602 10.5462 19.5698 10.5752L19.3287 10.5881C18.8068 10.6171 18.3114 10.6428 17.8888 10.4142C17.5155 10.2113 17.3007 9.92786 17.0498 9.60258C16.9705 9.4995 16.8881 9.39322 16.8021 9.28695C16.3298 8.7169 15.6395 8.24025 14.9591 8.0148C14.3382 7.80867 13.5654 7.94717 12.9346 8.29821C12.9313 8.29821 12.9279 8.29821 12.9279 8.30143L12.5745 8.46248C11.6233 8.8908 10.3187 9.48019 9.68128 10.2145C8.90513 11.1034 8.64091 12.2886 8.40971 13.3352C8.39649 13.3997 8.37669 13.4705 8.36016 13.5414C8.25449 13.9537 8.12238 14.469 8.37338 14.8683C8.6178 15.2579 8.91504 15.3321 9.1132 15.3321C9.14293 15.3321 9.17267 15.3289 9.19907 15.3289C9.68458 15.2741 10.104 14.7781 10.2527 14.3369C10.3583 14.0213 10.4013 13.6895 10.4409 13.3675C10.4938 12.9488 10.5433 12.5527 10.725 12.2209C10.8802 11.9311 11.2203 11.7347 11.5507 11.5414C11.5738 11.5285 11.5969 11.5157 11.62 11.4995V11.5157C11.6927 12.1308 11.7951 12.7523 11.9041 13.4093C12.2872 15.7282 12.6835 18.1244 11.6102 20.1244C11.4682 20.3886 11.1907 20.7009 10.8967 21.0326C10.7778 21.1646 10.6556 21.3031 10.5367 21.4449L4.32088 21.5221C4.18877 21.5221 4.07977 21.6317 4.08308 21.7606C4.08308 21.8892 4.19206 21.9923 4.32419 21.9923H4.3275L10.1635 21.9182C9.71101 22.5624 9.45338 23.2613 9.95872 23.9409C10.1998 24.2693 10.5004 24.4337 10.8538 24.4337H10.8703C11.8446 24.4176 12.8817 23.0905 13.5785 22.0922C13.6181 22.0342 13.6711 21.9601 13.724 21.8765L15.94 21.8508C15.9236 22.1083 15.9038 22.3628 15.8905 22.6203C15.8674 23.0164 15.8938 23.7411 16.3364 24.1243C16.4984 24.263 16.7855 24.4112 17.2349 24.3337C18.2289 24.1598 18.4369 22.5012 18.5129 21.8765C18.5162 21.8572 18.5162 21.8411 18.5195 21.8217L23.6786 21.754C23.8105 21.754 23.9195 21.6444 23.9163 21.5155C23.913 21.3837 23.8072 21.2806 23.6719 21.2806ZM11.2996 11.1324C10.9297 11.3449 10.5136 11.5896 10.2923 11.9955C10.071 12.4045 10.0149 12.8619 9.95872 13.3063C9.91909 13.6187 9.88276 13.915 9.79027 14.1855C9.67467 14.5236 9.37743 14.8297 9.13964 14.8586C9.0934 14.8651 8.94478 14.8811 8.78293 14.6203C8.6376 14.3885 8.74329 13.9826 8.82587 13.6541C8.84569 13.5769 8.86549 13.5028 8.88202 13.4319C9.1132 12.3917 9.35431 11.316 10.0512 10.5172C10.4574 10.0502 11.2105 9.63156 11.9404 9.27728C11.9206 9.31915 11.8975 9.36101 11.8777 9.4029C11.686 9.86343 11.5904 10.3981 11.5904 10.9552C11.4945 11.0164 11.3987 11.0744 11.2996 11.1324ZM14.7709 17.4481C14.761 17.245 14.751 17.0487 14.7445 16.8586C14.8205 16.8973 14.903 16.9423 15.002 16.9907C15.2795 17.1323 15.7486 17.3707 15.8243 17.4546C16.1876 17.8859 16.1416 18.5109 16.0954 19.1163C16.0854 19.2645 16.0722 19.4094 16.0689 19.5479C16.0491 20.1565 16.0061 20.775 15.9665 21.3804L14.0113 21.4031C14.2821 20.9295 14.5794 20.3177 14.6981 19.7281C14.8469 19.0131 14.8105 18.2177 14.7709 17.4481ZM18.1694 18.8652C18.1363 19.2903 18.1298 19.7217 18.1198 20.1404C18.1099 20.6945 18.0999 21.2644 18.0308 21.8185C17.8688 23.1034 17.5716 23.7927 17.1456 23.8668C16.9341 23.9055 16.7724 23.8732 16.6534 23.77C16.4455 23.5898 16.3364 23.1678 16.3695 22.6461C16.3893 22.3046 16.4124 21.9601 16.4355 21.6187C16.4818 20.9456 16.528 20.25 16.551 19.5609C16.5543 19.4288 16.5675 19.2903 16.5773 19.1486C16.627 18.4852 16.6832 17.7314 16.1976 17.1516C16.0789 17.0101 15.7519 16.8393 15.2233 16.5689C15.0318 16.4721 14.7709 16.3403 14.6883 16.2822C14.6454 16.2242 14.5727 16.1823 14.4934 16.1823C14.3613 16.1823 14.2524 16.2855 14.2524 16.4173C14.249 16.7523 14.2655 17.1003 14.2853 17.4642C14.3217 18.205 14.3581 18.9713 14.2259 19.6252C14.1004 20.2338 13.7074 21.052 13.1757 21.8185C12.1947 23.226 11.4152 23.9441 10.8604 23.9505C10.8571 23.9505 10.8538 23.9505 10.8505 23.9505C10.6589 23.9505 10.4938 23.8539 10.3452 23.6542C9.85634 22.9971 10.4145 22.2757 11.2534 21.3256C11.5671 20.9747 11.8611 20.6397 12.0295 20.3273C13.179 18.1889 12.7694 15.7121 12.373 13.3192C12.2641 12.6686 12.165 12.0535 12.0923 11.448C12.0792 11.3256 12.0692 11.2032 12.0659 11.0776C12.0494 10.5333 12.1386 10.0116 12.3201 9.57036C12.4622 9.22898 12.7595 8.93269 13.1228 8.72013L13.1293 8.7169C13.1328 8.7169 13.1328 8.71367 13.136 8.71045C13.6512 8.41093 14.2953 8.28212 14.7972 8.44959C15.3951 8.64927 16.0029 9.06793 16.4224 9.57357C16.5082 9.67665 16.5841 9.77648 16.6601 9.87632C16.9308 10.2306 17.1885 10.5655 17.6477 10.8167C18.1925 11.113 18.8068 11.0808 19.3518 11.0518L19.5862 11.039C19.9167 11.0261 20.7984 10.9874 21.1188 11.258C21.3137 11.4222 21.3864 11.5769 21.3368 11.7185C21.2542 11.9439 20.8811 12.1468 20.5243 12.1597C19.5532 12.192 18.1628 12.2048 17.3007 11.8989C16.9046 11.7604 16.0325 11.2 15.9996 10.9939C15.9996 10.8651 15.8938 10.7556 15.7617 10.7556H15.7585C15.6263 10.7556 15.5173 10.8586 15.5173 10.9874C15.5141 11.2226 15.5041 11.4512 15.4942 11.6767C15.4546 12.4883 15.4182 13.2515 15.7254 14.0793C16.0127 14.8586 16.4818 15.3289 16.977 15.8248C17.1554 16.0021 17.3371 16.1855 17.5187 16.3884C18.0308 16.9875 18.252 17.8153 18.1694 18.8652Z" fill="white" stroke="white" stroke-width="0.4"/>
</g>
<defs>
<clipPath id="clip0_451_657">
<rect width="28" height="28" fill="white"/>
</clipPath>
</defs>
</svg>
