<svg width="28" height="28" viewBox="0 0 28 28" fill="none" xmlns="http://www.w3.org/2000/svg">
<g clip-path="url(#clip0_451_982)">
<path d="M13.8534 9.23608C11.3073 9.23608 9.23535 11.3081 9.23535 13.8541C9.23535 16.4002 11.3073 18.4722 13.8534 18.4722C16.3995 18.4722 18.4715 16.4002 18.4715 13.8541C18.4715 11.3081 16.3995 9.23608 13.8534 9.23608Z" fill="#00B021"/>
<path d="M26.2819 10.7755H25.2464C24.9821 9.7949 24.5937 8.8564 24.0868 7.97538L24.8185 7.24368C25.0878 6.97429 25.2361 6.61562 25.2361 6.23489C25.2361 5.85364 25.0878 5.49549 24.8185 5.22559L22.4822 2.88936C21.9435 2.3511 21.0039 2.35008 20.4641 2.88936L19.7324 3.62107C18.8519 3.11462 17.9134 2.72619 16.9329 2.46194V1.42647C16.9329 0.639857 16.293 0 15.5064 0H12.2019C11.4153 0 10.7755 0.639857 10.7755 1.42647V2.46194C9.7949 2.72619 8.8564 3.11462 7.97538 3.62158L7.24368 2.88988C6.70439 2.35008 5.76436 2.3511 5.22559 2.88988L2.88936 5.2261C2.61998 5.49549 2.47169 5.85416 2.47169 6.2354C2.47169 6.61613 2.61998 6.97429 2.88936 7.24419L3.62107 7.9759C3.11462 8.8564 2.72568 9.7949 2.46194 10.7755H1.42647C0.639857 10.7755 0 11.4153 0 12.2019V15.5054C0 16.2925 0.639857 16.9329 1.42647 16.9329H2.46194C2.72619 17.9134 3.11462 18.8519 3.62158 19.733L2.88988 20.4647C2.62049 20.734 2.4722 21.0927 2.4722 21.4734C2.4722 21.8547 2.62049 22.2128 2.88988 22.4827L5.2261 24.819C5.76487 25.3583 6.7049 25.3588 7.24419 24.819L7.9759 24.0873C8.85692 24.5937 9.79541 24.9827 10.776 25.2469V26.2819C10.7755 27.068 11.4153 27.7083 12.2019 27.7083H15.5059C16.2925 27.7083 16.9324 27.068 16.9324 26.2814V25.2464C17.9129 24.9821 18.8514 24.5937 19.7324 24.0868L20.4641 24.8185C21.0039 25.3583 21.9429 25.3572 22.4822 24.8185L24.8185 22.4822C25.0878 22.2128 25.2361 21.8542 25.2361 21.4729C25.2361 21.0922 25.0878 20.734 24.8185 20.4641L24.0868 19.7324C24.5932 18.8514 24.9821 17.9129 25.2464 16.9324H26.2819C27.0685 16.9324 27.7083 16.292 27.7083 15.5054V12.2019C27.7083 11.4153 27.0685 10.7755 26.2819 10.7755ZM20.0116 13.8542C20.0116 17.2495 17.2495 20.0116 13.8542 20.0116C10.4589 20.0116 7.69676 17.2495 7.69676 13.8542C7.69676 10.4589 10.4589 7.69676 13.8542 7.69676C17.2495 7.69676 20.0116 10.4589 20.0116 13.8542Z" fill="#00B021"/>
</g>
<defs>
<clipPath id="clip0_451_982">
<rect width="28" height="28" fill="white"/>
</clipPath>
</defs>
</svg>
