<svg width="28" height="28" viewBox="0 0 28 28" fill="none" xmlns="http://www.w3.org/2000/svg">
<g clip-path="url(#clip0_451_3)">
<path d="M13.8515 6.67041C9.89029 6.67041 6.66797 9.89273 6.66797 13.8539C6.66797 17.8151 9.89029 21.0374 13.8515 21.0374C17.8127 21.0374 21.035 17.8151 21.035 13.8539C21.035 9.89273 17.8127 6.67041 13.8515 6.67041ZM13.8515 20.0112C10.4562 20.0112 7.69418 17.2492 7.69418 13.8539C7.69418 10.4587 10.4562 7.69663 13.8515 7.69663C17.2467 7.69663 20.0088 10.4587 20.0088 13.8539C20.0088 17.2492 17.2467 20.0112 13.8515 20.0112Z" fill="#5D5D5D" stroke="#5D5D5D" stroke-width="0.4"/>
<path d="M26.2814 10.7753H25.2459C24.9817 9.7942 24.5933 8.85521 24.0863 7.97523L24.818 7.24354C25.0874 6.97416 25.2357 6.6155 25.2357 6.23477C25.2357 5.85353 25.0874 5.49538 24.818 5.22549L22.4818 2.88931C21.9431 2.35106 21.0036 2.35003 20.4638 2.88931L19.7321 3.621C18.8516 3.11456 17.9131 2.72614 16.9326 2.46189V1.42644C16.9326 0.639845 16.2927 0 15.5061 0H12.2017C11.4151 0 10.7753 0.639845 10.7753 1.42644V2.46189C9.79471 2.72614 8.85624 3.11456 7.97523 3.62151L7.24354 2.88982C6.70427 2.35003 5.76425 2.35106 5.22549 2.88982L2.88931 5.226C2.61993 5.49538 2.47164 5.85405 2.47164 6.23529C2.47164 6.61601 2.61993 6.97416 2.88931 7.24406L3.621 7.97575C3.11456 8.85521 2.72563 9.7942 2.46189 10.7753H1.42644C0.639845 10.7753 0 11.4151 0 12.2017V15.5056C0 16.2927 0.639845 16.9326 1.42644 16.9326H2.46189C2.72614 17.9131 3.11456 18.8516 3.62151 19.7326L2.88982 20.4643C2.62044 20.7337 2.47215 21.0923 2.47215 21.473C2.47215 21.8543 2.62044 22.2124 2.88982 22.4823L5.226 24.8185C5.76477 25.3578 6.70478 25.3583 7.24406 24.8185L7.97575 24.0868C8.85675 24.5933 9.79523 24.9822 10.7758 25.2464V26.2819C10.7758 27.0685 11.4156 27.7083 12.2022 27.7083H15.5061C16.2927 27.7083 16.9326 27.0685 16.9326 26.2819V25.2464C17.9131 24.9822 18.8516 24.5938 19.7326 24.0868L20.4643 24.8185C21.0041 25.3583 21.9431 25.3573 22.4823 24.8185L24.8185 22.4823C25.0879 22.2129 25.2362 21.8543 25.2362 21.473C25.2362 21.0923 25.0879 20.7342 24.8185 20.4643L24.0868 19.7326C24.5933 18.8516 24.9822 17.9131 25.2464 16.9326H26.2819C27.0685 16.9326 27.7083 16.2927 27.7083 15.5061V12.2017C27.7078 11.4151 27.068 10.7753 26.2814 10.7753ZM26.6816 15.5061C26.6816 15.7268 26.502 15.9063 26.2814 15.9063H24.4383L24.3459 16.303C24.0786 17.4508 23.6281 18.5401 23.0052 19.5412L22.7897 19.887L24.0925 21.1898C24.249 21.3463 24.249 21.6003 24.0925 21.7563L21.7563 24.0925C21.6003 24.2484 21.3463 24.2495 21.1898 24.0925L19.887 22.7897L19.5412 23.0052C18.5406 23.6281 17.4513 24.0791 16.303 24.3459L15.9063 24.4383V26.2814C15.9063 26.502 15.7268 26.6816 15.5061 26.6816H12.2017C11.9811 26.6816 11.8015 26.502 11.8015 26.2814V24.4383L11.4048 24.3459C10.257 24.0786 9.1677 23.6281 8.16662 23.0052L7.82079 22.7897L6.51801 24.0925C6.361 24.2495 6.10701 24.2484 5.95154 24.0925L3.61536 21.7563C3.45886 21.5998 3.45886 21.3458 3.61536 21.1898L4.91814 19.887L4.70263 19.5412C4.07972 18.5406 3.6287 17.4513 3.36188 16.303L3.26952 15.9063H1.42644C1.2058 15.9063 1.02622 15.7268 1.02622 15.5061V12.2017C1.02622 11.9811 1.2058 11.8015 1.42644 11.8015H3.26952L3.36188 11.4048C3.62921 10.2565 4.07972 9.16718 4.70263 8.16662L4.91814 7.82079L3.61536 6.51801C3.45886 6.36151 3.45886 6.10752 3.61536 5.95154L5.95154 3.61536C6.10752 3.45937 6.36151 3.45835 6.51801 3.61536L7.82079 4.91814L8.16662 4.70263C9.16718 4.07972 10.2565 3.6287 11.4048 3.36188L11.8015 3.26952V1.42644C11.8015 1.2058 11.9811 1.02622 12.2017 1.02622H15.5056C15.7268 1.02622 15.9063 1.2058 15.9063 1.42644V3.26952L16.303 3.36188C17.4508 3.62921 18.5401 4.07972 19.5412 4.70263L19.887 4.91814L21.1898 3.61536C21.3468 3.45835 21.6008 3.45937 21.7563 3.61536L24.0925 5.95154C24.249 6.10803 24.249 6.36202 24.0925 6.51801L22.7897 7.82079L23.0052 8.16662C23.6281 9.16667 24.0791 10.256 24.3459 11.4048L24.4383 11.8015H26.2814C26.502 11.8015 26.6816 11.9811 26.6816 12.2017V15.5061Z" fill="#5D5D5D" stroke="#5D5D5D" stroke-width="0.4"/>
<path d="M13.8528 8.7229C11.0235 8.7229 8.72168 11.0247 8.72168 13.854C8.72168 16.6833 11.0235 18.9851 13.8528 18.9851C16.682 18.9851 18.9838 16.6833 18.9838 13.854C18.9838 11.0247 16.682 8.7229 13.8528 8.7229ZM13.8528 17.9588C11.5894 17.9588 9.7479 16.1173 9.7479 13.854C9.7479 11.5907 11.5894 9.74912 13.8528 9.74912C16.1161 9.74912 17.9576 11.5907 17.9576 13.854C17.9576 16.1173 16.1161 17.9588 13.8528 17.9588Z" fill="#5D5D5D" stroke="#5D5D5D" stroke-width="0.4"/>
</g>
<defs>
<clipPath id="clip0_451_3">
<rect width="28" height="28" fill="white"/>
</clipPath>
</defs>
</svg>
