<svg width="24" height="24" viewBox="0 0 24 24" fill="none" xmlns="http://www.w3.org/2000/svg">
<path d="M12 0C5.37224 0 0 5.37224 0 12C0 18.6278 5.37224 24 12 24C18.627 24 24 18.627 24 12C24 5.37224 18.627 0 12 0ZM12 22.5C6.20102 22.5 1.50002 17.799 1.50002 12C1.50002 6.20102 6.20102 1.50002 12 1.50002C17.799 1.50002 22.5 6.20102 22.5 12C22.5 17.799 17.799 22.5 12 22.5Z" fill="#383838"/>
<path d="M16.7389 7.25909C16.395 6.91364 15.877 6.91364 15.5331 7.25909L11.9984 10.8093L8.46379 7.25909C8.11986 6.91364 7.60189 6.91364 7.25795 7.25909C6.91402 7.60453 6.91402 8.12479 7.25795 8.47023L10.8009 12.0121L7.25795 15.5706C6.91402 15.9161 6.91402 16.4363 7.25795 16.7818C7.43199 16.9108 7.9914 17.2146 8.46379 16.7402L11.9984 13.2066L15.5331 16.7402C16.0096 17.2188 16.569 16.915 16.7389 16.7818C17.0829 16.4363 17.0829 15.9161 16.7389 15.5706L13.196 12.0121L16.7389 8.47023C17.087 8.12479 17.087 7.60453 16.7389 7.25909Z" fill="#383838"/>
</svg>
