<svg width="24" height="24" viewBox="0 0 24 24" fill="none" xmlns="http://www.w3.org/2000/svg">
<g clip-path="url(#clip0_657_1858)">
<path d="M12 0C5.37224 0 0 5.37224 0 12C0 18.6278 5.37224 24 12 24C18.627 24 24 18.627 24 12C24 5.37224 18.627 0 12 0ZM12 22.5C6.20102 22.5 1.50002 17.799 1.50002 12C1.50002 6.20102 6.20102 1.50002 12 1.50002C17.799 1.50002 22.5 6.20102 22.5 12C22.5 17.799 17.799 22.5 12 22.5Z" fill="#212121"/>
<path d="M17.4748 7.79475L9.75882 15.4417L6.54805 12.2948C6.25255 12.0015 5.77258 12.0015 5.47707 12.2948C5.18082 12.588 5.18082 13.0628 5.47707 13.3553L9.22629 17.0295C9.53376 17.3002 9.99354 17.3302 10.2973 17.0295L18.5465 8.85526C18.842 8.56274 18.842 8.08726 18.5465 7.79475C18.2503 7.50224 17.7711 7.50224 17.4748 7.79475Z" fill="#212121"/>
</g>
<defs>
<clipPath id="clip0_657_1858">
<rect width="24" height="24" fill="white"/>
</clipPath>
</defs>
</svg>
