<svg width="25" height="24" viewBox="0 0 25 24" fill="none" xmlns="http://www.w3.org/2000/svg">
<path d="M19.639 4.61774L18.1089 22.0541H6.89113L5.36132 4.61774L3.42285 4.78766L4.9806 22.5402C5.06259 23.3585 5.77255 24 6.59732 24H18.4027C19.2272 24 19.9374 23.3588 20.0208 22.5285L21.5775 4.78766L19.639 4.61774Z" fill="#5D5D5D"/>
<path d="M16.0678 0H8.93268C8.03849 0 7.31104 0.727453 7.31104 1.62164V4.70273H9.25696V1.94592H15.7434V4.70269H17.6893V1.62159C17.6894 0.727453 16.962 0 16.0678 0Z" fill="#5D5D5D"/>
<path d="M22.8781 3.72974H2.12142C1.584 3.72974 1.14844 4.1653 1.14844 4.70272C1.14844 5.24014 1.584 5.67571 2.12142 5.67571H22.8782C23.4156 5.67571 23.8512 5.24014 23.8512 4.70272C23.8512 4.1653 23.4156 3.72974 22.8781 3.72974Z" fill="#5D5D5D"/>
<path d="M15.2728 21.1412C15.2829 21.1417 15.2931 21.1419 15.3032 21.1419C15.6777 21.1419 15.9891 20.8464 16.0052 20.4686L16.474 9.45301C16.4905 9.06501 16.1893 8.73707 15.8013 8.72059C15.4138 8.70448 15.0855 9.00532 15.069 9.39332L14.6003 20.4089C14.5836 20.7969 14.8848 21.1247 15.2728 21.1412Z" fill="#5D5D5D"/>
<path d="M12.4951 21.1406C12.8835 21.1406 13.1982 20.8258 13.1982 20.4375V9.42187C13.1982 9.03351 12.8835 8.71875 12.4951 8.71875C12.1069 8.71875 11.792 9.03351 11.792 9.42187V20.4375C11.792 20.8258 12.1069 21.1406 12.4951 21.1406Z" fill="#5D5D5D"/>
<path d="M9.68198 21.1407C9.69205 21.1407 9.70231 21.1405 9.71256 21.14C10.1004 21.1235 10.4016 20.7957 10.3851 20.4077L9.91636 9.39211C9.89988 9.00411 9.57212 8.70309 9.18393 8.71938C8.79593 8.73586 8.49491 9.0638 8.51139 9.4518L8.98014 20.4674C8.99607 20.8453 9.30753 21.1407 9.68198 21.1407Z" fill="#5D5D5D"/>
</svg>
