<svg width="24" height="24" viewBox="0 0 24 24" fill="none" xmlns="http://www.w3.org/2000/svg">
<path d="M22.0211 3.03997H19.2534V2.50662C19.2534 2.06482 18.8952 1.7066 18.4534 1.7066C18.0115 1.7066 17.6533 2.06478 17.6533 2.50662V3.03997H6.3467V2.50662C6.3467 2.06482 5.98853 1.7066 5.54668 1.7066C5.10489 1.7066 4.74667 2.06478 4.74667 2.50662V3.03997H1.97893C0.887767 3.03997 0 3.92773 0 5.01889C0 5.2011 0 20.161 0 20.3143C0 21.4055 0.887767 22.2933 1.97893 22.2933H22.021C23.1122 22.2933 24 21.4055 24 20.3144C24 20.1606 24 5.19969 24 5.01894C24 3.92773 23.1123 3.03997 22.0211 3.03997ZM22.4001 20.3144C22.4001 20.5233 22.23 20.6933 22.0211 20.6933H1.97893C1.76996 20.6933 1.59999 20.5233 1.59999 20.3144V8.74663H22.4V20.3144H22.4001ZM22.4001 7.14665H1.59999V5.01889C1.59999 4.80997 1.76996 4.63995 1.97893 4.63995H4.74667V4.85328C4.74667 5.29508 5.10484 5.6533 5.54668 5.6533C5.98848 5.6533 6.3467 5.29513 6.3467 4.85328V4.63995H17.6534V4.85328C17.6534 5.29508 18.0116 5.6533 18.4534 5.6533C18.8953 5.6533 19.2534 5.29513 19.2534 4.85328V4.63995H22.0212C22.2301 4.63995 22.4001 4.80997 22.4001 5.01889V7.14665H22.4001Z" fill="#383838"/>
<path d="M11.3161 16.3755C11.4416 16.5008 11.6116 16.5713 11.7891 16.5713C11.9664 16.5713 12.1364 16.501 12.2618 16.3755L14.6494 13.988C14.9106 13.7267 14.9106 13.3034 14.6494 13.0421C14.3883 12.781 13.9647 12.781 13.7036 13.0421L11.7891 14.9567L10.9161 14.0837C10.6548 13.8226 10.2315 13.8226 9.97023 14.0837C9.70914 14.3448 9.70914 14.7684 9.97023 15.0296L11.3161 16.3755Z" fill="#383838"/>
<path d="M12.309 20.0178C15.2363 20.0178 17.6177 17.6361 17.6177 14.7088C17.6177 11.7815 15.2363 9.40002 12.309 9.40002C9.38146 9.40002 7 11.7815 7 14.7088C7 17.6361 9.38163 20.0178 12.309 20.0178ZM12.309 10.7375C14.4988 10.7375 16.2803 12.519 16.2803 14.7088C16.2803 16.8986 14.4988 18.6803 12.309 18.6803C10.1191 18.6803 8.33743 16.8986 8.33743 14.7088C8.33743 12.519 10.1191 10.7375 12.309 10.7375Z" fill="#383838"/>
</svg>
