<svg width="25" height="24" viewBox="0 0 25 24" fill="none" xmlns="http://www.w3.org/2000/svg">
<g clip-path="url(#clip0_1165_5814)">
<path d="M24.0356 3.465C22.9984 2.406 21.9394 1.356 21.0341 0.462C20.7251 0.153 20.3141 0 19.9016 0C19.4899 0 19.0774 0.15375 18.7691 0.46275C13.4524 5.7885 8.12735 11.109 2.8031 16.4318C2.71535 16.5195 2.64935 16.626 2.6096 16.7445C2.02685 18.4928 0.980603 21.3517 0.531352 22.9867C0.369352 23.571 0.891353 24.1155 1.4831 23.979C3.4286 23.5298 6.0311 22.4632 7.7546 21.8888C7.87085 21.8505 7.97885 21.7852 8.06735 21.6998C13.3879 16.3733 18.7151 11.0527 24.0356 5.7285C24.6521 5.1105 24.6521 4.08225 24.0356 3.465ZM2.56385 21.9345C2.7041 21.5033 2.8556 21.0667 3.00635 20.6122C3.2051 20.6955 3.39185 20.8147 3.5531 20.9775C3.70835 21.1327 3.82235 21.3075 3.9056 21.4935C3.45485 21.6435 3.00035 21.7973 2.56385 21.9345ZM7.0751 20.43C6.56135 20.604 5.98835 20.7997 5.4206 20.9925C5.25785 20.5755 5.01785 20.1795 4.68335 19.8442C4.34135 19.503 3.93935 19.2622 3.5111 19.1003C3.7016 18.5362 3.90035 17.9333 4.06835 17.43L16.9481 4.545C17.9501 5.54625 18.9514 6.5475 19.9534 7.5495C15.6664 11.8418 11.3674 16.1378 7.0751 20.43ZM21.0836 6.41625L18.0806 3.41475L19.9009 1.61475L22.8844 4.596L21.0836 6.41625Z" fill="#5D5D5D"/>
</g>
<defs>
<clipPath id="clip0_1165_5814">
<rect width="24" height="24" fill="white" transform="translate(0.5)"/>
</clipPath>
</defs>
</svg>
