<svg width="24" height="24" viewBox="0 0 24 24" fill="none" xmlns="http://www.w3.org/2000/svg">
<path d="M18.2156 12.7421C19.5168 11.9712 20.3911 10.5529 20.3911 8.93408C20.3911 6.49516 18.407 4.51101 15.9681 4.51101C15.733 4.51101 15.5022 4.52964 15.2769 4.56514C14.424 3.75076 13.2692 3.25 11.9997 3.25C10.7302 3.25 9.57542 3.75081 8.72249 4.56514C8.49721 4.52964 8.26638 4.51101 8.03125 4.51101C5.59233 4.51101 3.60818 6.49516 3.60818 8.93408C3.60818 10.5529 4.48255 11.9712 5.78369 12.7421C2.53908 13.7114 0.166992 16.723 0.166992 20.2786C0.166992 20.539 0.378039 20.75 0.638405 20.75H23.361C23.6213 20.75 23.8324 20.539 23.8324 20.2786C23.8324 16.723 21.4603 13.7114 18.2156 12.7421ZM16.008 5.45486C17.9085 5.47635 19.4483 7.02842 19.4483 8.93404C19.4483 10.8531 17.8871 12.4143 15.9681 12.4143C15.4242 12.4143 14.9092 12.2887 14.4502 12.0652C15.8265 11.2327 16.7486 9.72147 16.7486 7.99889C16.7486 7.06359 16.4767 6.19075 16.008 5.45486ZM9.04396 5.60461C9.26587 5.33126 9.52499 5.08948 9.81332 4.88638C10.4325 4.45014 11.1864 4.19287 11.9997 4.19287C12.813 4.19287 13.5669 4.45014 14.1861 4.88633C14.4744 5.08948 14.7335 5.33117 14.9554 5.60457C15.4865 6.25906 15.8057 7.09225 15.8057 7.99884C15.8057 9.53445 14.891 10.8596 13.5784 11.4606C13.2627 11.6051 12.9245 11.7085 12.5699 11.762C12.3838 11.7901 12.1934 11.8049 11.9997 11.8049C11.8059 11.8049 11.6156 11.7901 11.4295 11.762C11.0749 11.7085 10.7366 11.6051 10.421 11.4606C9.1083 10.8596 8.19367 9.53445 8.19367 7.99889C8.19367 7.09225 8.51279 6.25906 9.04396 5.60461ZM4.5511 8.93404C4.5511 7.02837 6.09087 5.47635 7.9915 5.45481C7.52281 6.1907 7.25089 7.06355 7.25089 7.99879C7.25089 9.72142 8.17297 11.2326 9.5493 12.0652C9.09028 12.2886 8.57523 12.4142 8.03134 12.4142C6.11227 12.4143 4.5511 10.8531 4.5511 8.93404ZM1.12572 19.8072C1.34582 16.5498 3.82986 13.9032 7.01313 13.4319C5.01992 14.8876 3.68347 17.1909 3.53926 19.8072H1.12572ZM4.48338 19.8072C4.66027 16.9588 6.42797 14.5344 8.90618 13.4132C9.45959 13.1628 10.0484 12.9775 10.6628 12.867C11.0968 12.7889 11.5435 12.7477 11.9997 12.7477C12.4559 12.7477 12.9026 12.7889 13.3366 12.867C13.9512 12.9775 14.5399 13.1629 15.0933 13.4132C17.5715 14.5344 19.3392 16.9588 19.5161 19.8072H4.48338ZM20.4601 19.8072C20.3159 17.1909 18.9795 14.8876 16.9862 13.4319C20.1695 13.9032 22.6535 16.5497 22.8737 19.8072H20.4601Z" fill="#006800" stroke="#006800" stroke-width="0.1"/>
<path d="M6.70977 16.1592C6.03461 17.1408 6.02658 18.1448 6.14 18.1428C6.26412 18.1646 6.4553 17.2853 7.06697 16.3981C7.66127 15.5041 8.41141 15.0089 8.34859 14.8982C8.30883 14.7966 7.37327 15.173 6.70977 16.1592Z" fill="#006800" stroke="#006800" stroke-width="0.4"/>
<path d="M13.3265 6.30086C13.812 6.72274 14.1733 7.15475 14.3999 7.06836C14.6093 7.00278 14.5367 6.25269 13.8886 5.67374C13.2406 5.09485 12.494 5.09488 12.4465 5.31742C12.3845 5.5491 12.8551 5.86979 13.3265 6.30086Z" fill="#006800" stroke="#006800" stroke-width="0.15"/>
</svg>
