<svg width="24" height="24" viewBox="0 0 24 24" fill="none" xmlns="http://www.w3.org/2000/svg">
<path d="M17.8389 6.64345V5.05122H18.074C18.6525 5.0528 19.1246 4.58909 19.1334 4.01112V1.76165C19.1248 1.18333 18.6529 0.719268 18.074 0.719972H5.44594C4.86708 0.719268 4.39516 1.18333 4.38672 1.76165V4.01112C4.39551 4.58909 4.86743 5.0528 5.44594 5.05122H5.68128V6.64345C5.6804 7.39755 6.02427 8.11069 6.61491 8.57985L10.8493 11.9631L6.6981 15.1811C6.0904 15.6491 5.7351 16.3735 5.73756 17.1404V18.8887H5.44594C4.86743 18.8871 4.39551 19.3509 4.38672 19.9288V22.1783C4.39516 22.7566 4.86708 23.2207 5.44594 23.22H18.074C18.6529 23.2207 19.1248 22.7566 19.1334 22.1783V19.9288C19.1246 19.3509 18.6525 18.8871 18.074 18.8887H17.8952V17.1515C17.8916 16.377 17.5286 15.648 16.9125 15.1782L12.6768 11.9587L16.9059 8.57968C17.4964 8.11052 17.8401 7.3972 17.8389 6.64345ZM5.51242 1.84497H18.0077V3.92622H5.51242V1.84497ZM18.0077 22.095H5.51242V20.0137H6.20332C6.23569 20.0137 6.2684 20.0229 6.30235 20.0229C6.33612 20.0229 6.36919 20.0137 6.40155 20.0137H17.2259C17.2581 20.0137 17.2912 20.0229 17.3249 20.0229C17.3589 20.0229 17.3918 20.0137 17.4239 20.0137H18.0077V22.095ZM16.7695 17.1515V18.8887H6.86327V17.1404C6.86239 16.7213 7.0564 16.3257 7.38883 16.0701L11.7629 12.6792L16.2307 16.0734C16.5677 16.3301 16.7668 16.7282 16.7695 17.1515ZM16.2019 7.70112L11.7611 11.2498L7.31882 7.70112C6.99554 7.44519 6.80698 7.05566 6.80698 6.64345V5.05122H16.7132V6.64345C16.7132 7.05566 16.525 7.44501 16.2019 7.70112Z" fill="#383838"/>
</svg>
