<svg width="24" height="24" viewBox="0 0 24 24" fill="none" xmlns="http://www.w3.org/2000/svg">
<g clip-path="url(#clip0_657_1425)">
<path d="M14.1564 0C8.72875 0 4.3128 4.41576 4.3128 9.84354C4.3128 11.7956 4.88409 13.617 5.8681 15.1488L0.618462 20.3988C-0.206062 21.2232 -0.206245 22.5571 0.618462 23.3816C1.4428 24.2061 2.77673 24.2061 3.60125 23.3816L8.85107 18.1318C10.3829 19.1158 12.2043 19.6871 14.1564 19.6871C19.5842 19.6871 23.9999 15.2713 23.9999 9.84354C23.9999 4.41576 19.5842 0 14.1564 0ZM2.6068 22.3872C2.33196 22.6622 1.88775 22.6622 1.61272 22.3872C1.33862 22.113 1.33862 21.6672 1.61272 21.3931L6.7199 16.2859C7.02734 16.6404 7.35949 16.9727 7.71398 17.2802L2.6068 22.3872ZM14.1564 18.2808C9.50402 18.2808 5.71905 14.4959 5.71905 9.84354C5.71905 5.19121 9.50402 1.40625 14.1564 1.40625C18.8087 1.40625 22.5937 5.19121 22.5937 9.84354C22.5937 14.4959 18.8087 18.2808 14.1564 18.2808Z" fill="#212121"/>
<path d="M15.8442 8.35378L15.3967 8.85324L16.0031 9.13959C17.5049 9.84872 18.5443 11.3768 18.5444 13.1411V14.5474C18.5444 14.6596 18.4534 14.7506 18.3412 14.7506H9.90337C9.79117 14.7506 9.7002 14.6596 9.7002 14.5474V13.1411C9.7002 11.3769 10.7396 9.84872 12.2414 9.13963L12.8478 8.85329L12.4003 8.35382C12.0326 7.94351 11.8096 7.40395 11.8096 6.81269C11.8096 5.53792 12.8475 4.5 14.1223 4.5C15.397 4.5 16.4349 5.53791 16.4349 6.81264C16.4349 7.4039 16.2119 7.9435 15.8442 8.35378ZM10.1064 13.8442V14.3442H10.6064H17.138H17.638H17.638L17.638 13.8442H18.138V13.141C18.138 10.9263 16.337 9.12528 14.1222 9.12528C11.9075 9.12528 10.1064 10.9263 10.1064 13.141V13.8442ZM16.0285 6.81264C16.0285 5.7611 15.1738 4.90634 14.1222 4.90634C13.0707 4.90634 12.2159 5.76109 12.2159 6.81264C12.2159 7.86419 13.0707 8.71894 14.1222 8.71894C15.1737 8.71894 16.0285 7.86425 16.0285 6.81264Z" fill="#212121" stroke="#212121"/>
</g>
<defs>
<clipPath id="clip0_657_1425">
<rect width="24" height="24" fill="white"/>
</clipPath>
</defs>
</svg>
