<svg width="24" height="24" viewBox="0 0 24 24" fill="none" xmlns="http://www.w3.org/2000/svg">
<path d="M19.071 14.7424C17.7677 13.4807 16.1678 12.6104 14.4236 12.192C16.2692 11.3199 17.5437 9.48455 17.5437 7.36638C17.5437 4.40735 15.0568 2 12 2C8.94317 2 6.45631 4.40735 6.45631 7.36638C6.45631 9.48462 7.73079 11.3199 9.57639 12.192C7.83216 12.6104 6.23235 13.4807 4.92897 14.7424C3.04019 16.5707 2 19.0016 2 21.5872C2 21.8152 2.19091 22 2.42645 22H21.5735C21.809 22 22 21.8152 22 21.5872C22 19.0016 20.9598 16.5707 19.071 14.7424ZM7.30918 7.36634C7.30918 4.86255 9.41349 2.82555 12 2.82555C14.5866 2.82555 16.6909 4.86255 16.6909 7.36634C16.6909 9.87013 14.5866 11.9071 12 11.9071C9.41349 11.9071 7.30918 9.87009 7.30918 7.36634ZM2.86272 21.1744C3.08607 16.4828 7.09914 12.7327 12 12.7327C16.9009 12.7327 20.914 16.4828 21.1373 21.1744H2.86272Z" fill="#006800" stroke="#006800" stroke-width="0.5"/>
<path d="M5.85775 16.9077C4.58888 18.5555 4.46042 20.3169 4.65496 20.326C4.86511 20.3782 5.2931 18.8561 6.44241 17.3669C7.56274 15.8639 8.90449 15.0782 8.80951 14.877C8.753 14.6941 7.10716 15.2506 5.85775 16.9077Z" fill="#006800" stroke="#006800" stroke-width="0.416543"/>
<path d="M14.0519 6.05618C14.6648 6.60181 15.1209 7.16057 15.4069 7.04883C15.6713 6.96401 15.5796 5.99387 14.7616 5.24508C13.9435 4.49636 13.001 4.49641 12.9412 4.78423C12.8628 5.08388 13.4569 5.49864 14.0519 6.05618Z" fill="#006800" stroke="#006800" stroke-width="0.145503"/>
</svg>
