<svg width="24" height="25" viewBox="0 0 24 25" fill="none" xmlns="http://www.w3.org/2000/svg">
<path d="M12 22.5C10.6167 22.5 9.31667 22.2375 8.1 21.7125C6.88333 21.1875 5.825 20.475 4.925 19.575C4.025 18.675 3.3125 17.6167 2.7875 16.4C2.2625 15.1833 2 13.8833 2 12.5C2 11.1167 2.2625 9.81667 2.7875 8.6C3.3125 7.38333 4.025 6.325 4.925 5.425C5.825 4.525 6.88333 3.8125 8.1 3.2875C9.31667 2.7625 10.6167 2.5 12 2.5C13.3833 2.5 14.6833 2.7625 15.9 3.2875C17.1167 3.8125 18.175 4.525 19.075 5.425C19.975 6.325 20.6875 7.38333 21.2125 8.6C21.7375 9.81667 22 11.1167 22 12.5V13.95C22 14.9333 21.6625 15.7708 20.9875 16.4625C20.3125 17.1542 19.4833 17.5 18.5 17.5C17.9167 17.5 17.3667 17.375 16.85 17.125C16.3333 16.875 15.9 16.5167 15.55 16.05C15.0667 16.5333 14.5208 16.8958 13.9125 17.1375C13.3042 17.3792 12.6667 17.5 12 17.5C10.6167 17.5 9.4375 17.0125 8.4625 16.0375C7.4875 15.0625 7 13.8833 7 12.5C7 11.1167 7.4875 9.9375 8.4625 8.9625C9.4375 7.9875 10.6167 7.5 12 7.5C13.3833 7.5 14.5625 7.9875 15.5375 8.9625C16.5125 9.9375 17 11.1167 17 12.5V13.95C17 14.3833 17.1417 14.75 17.425 15.05C17.7083 15.35 18.0667 15.5 18.5 15.5C18.9333 15.5 19.2917 15.35 19.575 15.05C19.8583 14.75 20 14.3833 20 13.95V12.5C20 10.2667 19.225 8.375 17.675 6.825C16.125 5.275 14.2333 4.5 12 4.5C9.76667 4.5 7.875 5.275 6.325 6.825C4.775 8.375 4 10.2667 4 12.5C4 14.7333 4.775 16.625 6.325 18.175C7.875 19.725 9.76667 20.5 12 20.5H17V22.5H12ZM12 15.5C12.8333 15.5 13.5417 15.2083 14.125 14.625C14.7083 14.0417 15 13.3333 15 12.5C15 11.6667 14.7083 10.9583 14.125 10.375C13.5417 9.79167 12.8333 9.5 12 9.5C11.1667 9.5 10.4583 9.79167 9.875 10.375C9.29167 10.9583 9 11.6667 9 12.5C9 13.3333 9.29167 14.0417 9.875 14.625C10.4583 15.2083 11.1667 15.5 12 15.5Z" fill="#454545"/>
</svg>
