<svg width="24" height="24" viewBox="0 0 24 24" fill="none" xmlns="http://www.w3.org/2000/svg">
    <path
        d="M5.54376 2C3.58064 2 2 3.58064 2 5.54376V18.4562C2 20.4194 3.58064 22 5.54376 22H15.0475L22 12.0025L15.0475 2.00002H5.54376V2ZM10.8656 5.65126H13.1237C13.2624 5.65126 13.3419 5.70196 13.3419 5.82126V18.2662C13.3419 18.3509 13.302 18.4019 13.1831 18.4019H11.955C11.8763 18.4019 11.8169 18.3339 11.8169 18.2831V13.6756H10.8256L8.07249 18.2831C8.03297 18.3679 7.95385 18.4019 7.83499 18.4019H6.42874C6.27074 18.4019 6.17166 18.2831 6.27062 18.13L9.30061 13.4375C7.67687 12.8254 6.76562 11.5844 6.76562 9.90123C6.76562 7.09596 8.64743 5.65124 10.8656 5.65124L10.8656 5.65126ZM10.8063 6.73876C9.59801 6.73876 8.40937 7.60579 8.40937 9.73125C8.40937 11.7715 9.67715 12.5875 10.9844 12.5875H11.8169V6.73876H10.8063Z"
        fill="#454545" />
</svg>